<svg width="80" height="69" viewBox="0 0 80 69" fill="none" xmlns="http://www.w3.org/2000/svg">
<path fill-rule="evenodd" clip-rule="evenodd" d="M7.57273 54.8371C8.08536 55.2387 8.32597 55.8205 8.42905 56.4745C8.48582 56.8353 8.81518 56.8846 9.06295 56.948C9.27737 57.0031 9.47526 57.0103 9.64862 57.1872C9.72027 57.2605 9.94407 57.2765 10.038 57.2192C10.3387 57.0359 10.6606 56.902 10.9382 56.6575C11.9155 55.7976 12.6318 54.734 13.3024 53.649C13.9864 52.5418 14.7024 51.4466 15.2264 50.2457C15.3893 49.872 15.3959 49.875 14.9858 49.5848C14.6523 50.219 14.3414 50.8628 13.9815 51.478C13.6959 51.9661 13.3506 52.4186 13.0028 52.9293C12.9209 52.7237 12.9228 52.592 13.0499 52.4087C13.7417 51.4094 14.3984 50.3874 14.9193 49.2172C14.8361 49.1629 14.7355 49.097 14.6355 49.032C14.6123 49.0518 14.5608 49.0965 14.4726 49.1728V48.7561C14.2254 48.7067 14.0013 48.6624 13.7097 48.6045C13.4823 48.7106 13.3743 49.113 13 49.1629C13.0121 49.5699 12.6563 49.7728 12.4775 50.0702C12.2556 50.4389 11.9549 50.76 11.7421 51.0326C11.5018 51.0006 11.3221 50.967 11.1408 50.9543C10.5041 50.9097 10.5195 50.9298 10.1229 51.2795C9.68224 51.6682 9.38072 52.2119 8.81242 52.4589C8.77576 52.4746 8.73497 52.5303 8.73304 52.5691C8.71541 52.9781 8.48638 53.1267 8.10245 53.2259C7.78027 53.3094 7.68876 53.649 7.67361 53.983C7.66203 54.239 7.6149 54.4934 7.57273 54.8371" fill="#FFA185"/>
<path fill-rule="evenodd" clip-rule="evenodd" d="M64.408 7.33372C63.9521 7.56192 63.9521 7.56192 63.7068 7.08429C63.3951 6.97736 63.0183 7.19261 62.7364 6.90625C62.4192 6.98535 62.1061 7.09284 61.7842 7.13721C61.2644 7.20859 60.9959 7.6107 60.7024 7.94915C60.5031 8.17901 60.2945 8.40969 60.1123 8.65939C59.8993 8.95154 59.6446 9.21282 59.4308 9.50413C59.237 9.76817 59.0714 10.0534 58.8994 10.3329C58.8517 10.4106 58.7905 10.5051 58.7974 10.5867C58.8159 10.8039 58.7406 10.9503 58.5863 11.106C58.2895 11.4053 58.3126 11.8446 58.2095 12.2183C58.1139 12.5667 58.1687 12.9638 58.1996 13.3362C58.2112 13.4784 58.2299 13.7818 58.543 13.5581C58.5651 13.5421 58.6745 13.6587 58.7497 13.7028C58.8291 13.7491 58.9647 13.8375 58.9928 13.813C59.323 13.5231 59.4035 13.7303 59.5545 14.0169C59.7766 14.4389 59.9122 14.4078 60.5087 14.3014C60.8716 14.2363 61.2564 14.225 61.4689 13.91C62.0435 13.0584 62.6322 12.2125 62.7119 11.1239C62.7436 10.6876 62.8654 10.2323 63.2253 9.91865C63.5354 9.64828 63.7413 9.26187 64.1646 9.11112C64.2922 9.06564 64.3856 8.91351 64.4849 8.80133C64.6957 8.5621 64.809 8.29614 64.8145 7.95962C64.8203 7.61015 64.5441 7.53188 64.408 7.33372" fill="#FFA185"/>
<path fill-rule="evenodd" clip-rule="evenodd" d="M15.6915 35.7982C16.0635 35.4261 16.3758 35.0617 16.7399 34.7597C17.7841 33.8932 18.28 32.6672 18.9045 31.5262C19.1851 31.0139 19.1049 30.4384 19.0927 29.8842C19.0905 29.788 18.9577 29.6945 18.88 29.5937C18.7739 29.8037 18.6744 30.0005 18.5291 30.2876V29.2616C18.3106 29.1532 18.0948 29.0943 17.9476 28.9603C17.7649 28.7941 17.5584 28.8269 17.3909 28.8691C17.1957 28.9181 17.0293 29.081 16.833 29.2056C16.948 29.7441 16.736 30.195 16.4734 30.665C16.2383 30.6013 15.9607 30.7683 15.7254 30.5269C15.6755 30.4756 15.5118 30.4715 15.4412 30.5139C14.8646 30.8609 14.1571 31.045 13.8656 31.7572C13.8132 31.8856 13.755 32.0515 13.6497 32.1086C13.491 32.1946 13.6335 32.463 13.3609 32.4735C13.1366 32.482 13.2799 32.7108 13.2396 32.8354C13.1898 32.9897 13.1217 33.1407 13.0947 33.2989C13.0699 33.4439 13.0894 33.5966 13.0894 33.7471C13.6666 34.2421 14.0375 34.8727 14.322 35.5752C14.7836 35.6502 15.2521 35.7265 15.6915 35.7982" fill="#FFA185"/>
<path fill-rule="evenodd" clip-rule="evenodd" d="M78.2915 0.756027C78.1545 0.56944 78.0479 0.413997 77.9296 0.267373C77.8864 0.214181 77.8197 0.176698 77.7576 0.141971C77.581 0.043028 77.4548 0.32277 77.2571 0.200952C77.1022 0.105591 76.9209 0.0198769 76.7442 0.00278921C76.5976 -0.0112668 76.3802 0.165398 76.3013 0.108623C76.1258 -0.0178814 76.0208 -0.0559153 75.8681 0.115237C75.8397 0.146657 75.7358 0.122954 75.671 0.107245C75.192 -0.00823512 75.1923 -0.00961317 74.936 0.455889C74.901 0.355017 74.8706 0.267924 74.8155 0.108898C74.7397 0.313951 74.6653 0.459748 74.6339 0.614088C74.5953 0.802604 74.5859 0.998011 74.5771 1.19094C74.568 1.38496 74.5752 1.57982 74.4663 1.77964L74.3936 1.05699C74.3679 1.05589 74.342 1.05479 74.3161 1.05396C74.3021 1.18184 74.2773 1.30972 74.2764 1.43788C74.2723 2.08777 74.3029 2.7393 74.266 3.38698C74.2332 3.95832 74.331 4.47564 74.6537 4.94803C74.7747 4.83227 74.8894 4.65671 75.0272 4.93673C75.178 5.24265 75.4194 5.2195 75.7314 5.07922C75.7832 5.41188 75.8066 5.80407 76.3576 5.67867V4.8455C76.3942 4.83834 76.4311 4.83089 76.4678 4.82345C76.5552 5.10761 76.6423 5.39176 76.7321 5.68418C76.9782 5.51936 77.18 5.34408 77.14 4.99736C77.129 4.90007 77.2425 4.79369 77.2792 4.6851C77.4377 4.21271 77.4352 4.2116 77.8274 4.2003C77.9023 4.1981 77.9773 4.20003 78.0523 4.20003H78.2581C78.4483 4.00986 78.6197 3.82713 78.803 3.65735C79.1936 3.29658 79.3179 2.81895 79.3804 2.32258C79.4113 2.07647 79.3581 1.81932 79.3931 1.57431C79.4317 1.30421 79.2925 1.10467 79.1696 0.914501C78.9246 0.53554 78.7909 0.524516 78.2915 0.756027" fill="#FFA185"/>
<path fill-rule="evenodd" clip-rule="evenodd" d="M34.4588 6.70531C34.7793 6.92304 35.088 7.14132 35.4096 7.33783C35.4407 7.35684 35.5526 7.24357 35.6734 7.15923C35.7472 7.2918 35.7974 7.41334 35.8757 7.51256C35.9677 7.6297 36.0859 7.72616 36.1904 7.83392C36.4021 8.05193 36.606 8.29474 36.9188 7.96346C36.9428 7.93838 37.0156 7.96318 37.0649 7.95795C37.4163 7.91991 37.7512 8.00756 38.1048 7.72478C38.3895 7.49713 38.7519 7.33976 39.0195 7.06029C39.2703 6.79791 39.5299 6.55152 39.705 6.21858C39.9734 5.70733 40.2385 5.20186 40.1429 4.60186C40.1189 4.45138 40.0156 4.3133 39.9221 4.11183C39.7331 4.26672 39.6052 4.37146 39.4558 4.4941C39.3334 4.08813 39.3585 3.61629 38.9823 3.25855C38.8349 3.36879 38.6924 3.47518 38.5146 3.60802V3.05984C38.0207 2.9755 37.572 2.80572 37.077 2.83549C36.7932 2.85258 36.5479 2.94243 36.3682 3.11468C36.1372 3.33572 35.8544 3.49392 35.6659 3.77724C35.4956 4.03356 35.2627 4.24798 35.0838 4.51202C34.7903 4.9461 34.6911 5.45349 34.4764 5.91541C34.3739 6.13562 34.4588 6.4432 34.4588 6.70531" fill="#FFA185"/>
<path fill-rule="evenodd" clip-rule="evenodd" d="M66.2914 21.0744V22.6873C66.1418 22.2796 66.1677 21.8679 66.155 21.4583C66.1501 21.2935 66.2281 21.0884 66.0282 20.9901C65.8218 20.8881 65.6038 20.7872 65.3811 20.7544C65.3045 20.7431 65.1587 20.9245 65.1152 21.0432C65.0683 21.1709 65.1044 21.3288 65.1044 21.4897C64.9798 21.4376 64.9057 21.3773 64.8393 21.3847C64.702 21.4002 64.5135 21.5272 64.4432 21.476C64.0527 21.1885 63.6247 21.3773 63.2209 21.3547C63.0382 21.3445 62.7617 21.4666 62.6741 21.6149C62.4591 21.98 62.0253 22.0917 61.7979 22.5213C61.7905 22.7049 61.7662 22.9317 61.5755 23.1759C61.3255 23.4959 61.1122 23.8933 61.1897 24.3616C61.2258 24.5793 61.196 24.8078 61.196 25.0732C61.7084 25.3772 62.2414 25.6726 62.7524 26.0023C63.287 26.3473 63.7735 26.1155 64.2285 25.8771C64.5606 25.703 65.0063 25.6214 65.1185 25.1575C65.8609 24.8235 65.993 24.041 66.3893 23.4499C66.6558 23.0524 66.6475 22.59 66.7231 22.1694C66.7853 21.8218 66.54 21.4192 66.4309 21.041C66.3843 21.0521 66.3378 21.0634 66.2914 21.0744" fill="#FFA185"/>
<path fill-rule="evenodd" clip-rule="evenodd" d="M51.7477 29.207C52.0641 28.8906 52.3995 28.5552 52.7771 28.1776C52.7771 27.9276 52.803 27.6297 52.7639 27.3406C52.749 27.2331 52.5938 27.1245 52.4784 27.0614C52.4345 27.0372 52.3218 27.1391 52.2397 27.184C52.1305 26.968 52.0666 26.6756 51.6976 26.7467C51.6289 26.7602 51.5316 26.7643 51.4848 26.7265C51.301 26.5777 51.1009 26.4259 50.8658 26.4912C50.4444 26.6086 49.9747 26.6772 49.6462 26.968C48.9969 27.5432 48.3795 28.1682 48.0562 28.9989C47.8636 29.4942 47.6897 30.0057 47.5965 30.5261C47.556 30.7537 47.6175 31.0663 47.8768 31.2476C48.3037 31.5467 48.7146 31.8697 49.1509 32.1541C49.2995 32.2508 49.509 32.3178 49.6823 32.3026C50.7745 32.2081 51.5529 31.6941 51.8756 30.4605C51.9227 30.2808 52.0355 30.0936 52.0112 29.9255C51.9759 29.6822 51.8431 29.4526 51.7477 29.207" fill="#FFA185"/>
<path fill-rule="evenodd" clip-rule="evenodd" d="M49.8737 56.363C49.9035 56.2123 49.9332 56.0618 49.963 55.911C49.9649 56.5091 50.5964 56.7329 50.7339 57.2414C50.7829 57.4233 51.0519 57.5043 51.1633 57.4032C51.3449 57.2389 51.4687 57.3588 51.5712 57.4255C51.8438 57.603 52.0753 57.5859 52.3536 57.4233C53.1559 56.9542 53.9836 56.5232 54.4565 55.6633C55.0265 55.3549 55.1932 54.7284 55.5474 54.2521C55.7196 54.0206 55.7745 53.7018 55.8947 53.3909C55.6852 53.0858 55.3809 53.1665 55.013 53.3501C55.0485 53.1767 55.0389 53.0171 55.1117 52.9188C55.2122 52.7834 55.1048 52.7302 55.0477 52.7063C54.7886 52.5979 54.5207 52.5186 54.3074 52.3141C54.2553 52.2639 54.1079 52.2838 54.0164 52.3113C53.8529 52.3609 53.7129 52.4654 53.5313 52.3177C53.4798 52.276 53.3122 52.3593 53.2069 52.4056C52.3021 52.803 51.4833 53.3013 50.9475 54.1832C50.8753 54.3023 50.7127 54.4285 50.5911 54.5418C50.2425 54.8657 50.1772 55.3375 49.9073 55.6867C49.7282 55.919 49.7673 56.123 49.8737 56.363" fill="#FFA185"/>
<path fill-rule="evenodd" clip-rule="evenodd" d="M4.24935 21.3191C4.2295 21.1805 4.20966 21.0416 4.18761 20.8889C4.13304 20.9286 4.08453 20.9443 4.07185 20.9749C3.8792 21.4462 3.63915 21.8979 3.52587 22.402C3.45477 22.719 3.36409 23.0224 3.67084 23.2693C3.87975 23.4375 3.66781 23.9203 4.13772 23.8933C4.35931 24.2491 4.7143 24.2136 5.05385 24.1893C5.13046 24.4275 5.17814 24.6595 5.27819 24.8665C5.39091 25.0997 5.75113 25.1655 6.13726 25.0553C6.22546 25.0302 6.31062 24.9445 6.39137 24.9517C7.017 25.0062 7.0159 25.0109 7.27911 24.5176C7.41057 24.2715 7.56932 24.0364 7.6713 23.7787C7.79532 23.4645 7.98825 23.2682 8.30547 23.1326C8.77649 22.9312 9.08241 22.5227 9.16372 22.0368C9.2373 21.597 9.03142 21.1935 8.63868 20.8765C8.4441 21.1306 8.25007 21.3839 7.97805 21.7389C7.97805 21.3756 7.98191 21.1312 7.97695 20.887C7.97199 20.6442 7.94553 20.6938 7.56133 20.5207C7.28682 20.397 6.88912 20.5469 6.7312 20.166C6.46 20.1555 6.18908 20.1456 5.91788 20.1351C5.4171 20.1153 4.97282 20.1699 4.73938 20.7266C4.64677 20.9471 4.42491 21.1135 4.24935 21.3191" fill="#FFA185"/>
<path fill-rule="evenodd" clip-rule="evenodd" d="M78.3515 24.9712C78.9446 24.8427 79.153 24.4222 79.207 24.0526C79.2762 23.5799 79.4363 23.1166 79.398 22.6169C79.3484 21.9701 79.3519 21.3139 79.4004 20.667C79.4239 20.3531 79.2224 20.1207 79.2271 19.8272C79.2282 19.7509 79.1221 19.6032 79.0719 19.6062C78.685 19.6282 78.5011 19.2093 78.0954 19.2068C77.8267 19.2055 77.5594 18.9535 77.2579 18.7959C76.9608 19.093 76.3288 18.7256 76.0879 19.3807C76.2456 19.841 75.8528 20.2453 75.7197 20.7169C75.7012 20.7828 75.6321 20.8415 75.6315 20.9038C75.6252 21.6465 75.6276 22.389 75.6276 23.1957C75.7478 23.089 75.7999 23.043 75.9292 22.9281C75.8886 23.1026 75.8964 23.2362 75.8368 23.2814C75.7734 23.3299 75.6398 23.2762 75.5499 23.3062C75.5091 23.3197 75.4874 23.4275 75.483 23.4942C75.4807 23.5248 75.5472 23.5923 75.5714 23.5873C75.7533 23.5518 75.9327 23.5022 76.1293 23.4531C76.2635 23.7436 76.4068 24.0537 76.5137 24.2855C76.7185 24.2703 76.8409 24.2609 76.963 24.2518C76.7488 24.4679 76.9949 24.5456 77.084 24.6785C77.1746 24.8133 77.2411 24.9643 77.313 25.0985C77.7859 25.0472 77.9623 24.7424 78.0888 24.3387C78.1784 24.5547 78.2592 24.7485 78.3515 24.9712" fill="#FFA185"/>
<path fill-rule="evenodd" clip-rule="evenodd" d="M23.023 59.5365C23.4119 59.5255 23.7798 59.4205 23.9678 59.8515C24.2853 59.4331 24.3228 59.1363 23.9995 58.8039C23.7762 58.5746 23.629 58.2883 23.3446 58.0901C23.0957 57.9165 23.0042 57.5325 22.7898 57.2881C22.625 57.1001 22.3775 56.9844 22.1667 56.8369C22.1008 56.9011 22.0297 56.9711 21.9175 57.0811C22.0366 57.1657 22.1534 57.2489 22.2706 57.3319C22.2576 57.3619 22.2444 57.392 22.2314 57.422C22.06 57.395 21.8889 57.368 21.6962 57.3377C21.6449 57.4146 21.5854 57.6119 21.4578 57.6783C20.6913 58.0774 20.2021 58.7436 19.7364 59.4274C19.5834 59.6517 19.5307 59.9419 19.4078 60.1902C19.1044 60.804 19.0261 60.9173 19.1184 61.4751C19.1851 61.8783 19.2587 62.3083 19.5754 62.6368C19.7005 62.7664 19.8339 62.9535 19.8405 63.1194C19.8571 63.5383 20.0872 63.6053 20.4256 63.5838C20.5202 63.5777 20.6202 63.5899 20.7123 63.6147C21.3026 63.7734 21.3635 63.7569 21.6579 63.3043C22.0939 62.6343 22.3023 61.8681 22.5558 61.1234C22.735 60.5973 22.8717 60.0563 23.023 59.5365" fill="#FFA185"/>
<path fill-rule="evenodd" clip-rule="evenodd" d="M32.5811 51.2907C32.9987 51.0536 33.4215 50.8461 33.7619 50.503C34.396 49.8625 35.0768 49.2625 35.6619 48.58C36.2771 47.8626 36.9283 47.1554 37.2996 46.3143C37.2604 45.9822 36.8277 46.3349 36.8195 45.943C36.817 45.8311 36.5427 45.7231 36.3906 45.617C36.013 45.3535 35.8022 45.3094 35.5271 45.6021C35.2556 45.8912 34.9417 45.9948 34.5865 46.0701C34.0377 46.1864 33.6591 46.6078 33.1894 46.8671C32.687 47.1444 32.329 47.5909 31.9208 47.9787C31.7094 48.1793 31.4467 48.3334 31.2651 48.5555C31.0824 48.779 30.9145 49.0478 30.8498 49.3225C30.8106 49.4898 30.9363 49.7423 31.0642 49.8914C31.2221 50.0752 31.2968 50.3406 31.5732 50.4297C31.7331 50.4809 31.7105 50.6595 31.7416 50.8067C31.7775 50.9756 31.8246 51.1812 32.1178 50.969C32.3229 50.821 32.4954 51.031 32.5811 51.2907" fill="#FFA185"/>
<path fill-rule="evenodd" clip-rule="evenodd" d="M2.32097 46.9434C3.17756 46.5906 3.54577 45.9346 3.91178 45.2972C4.23342 44.7369 4.52666 44.1534 4.76589 43.5534C5.00429 42.9542 5.42019 42.3865 5.2347 41.6324C4.69286 42.01 4.73778 42.7318 4.21743 43.2144C4.31279 42.451 4.70884 41.8612 4.90645 41.0569C4.63305 41.2069 4.53383 41.2612 4.41256 41.3276C4.38914 41.1967 4.36461 41.0594 4.34035 40.9227C4.1138 40.8797 3.89028 40.8373 3.62625 40.7871C3.55625 40.899 3.46447 41.0644 3.35533 41.2176C2.92979 41.8138 2.92731 41.811 2.1545 42.0858C2.06824 42.1166 1.98748 42.1668 1.90921 42.2164C1.31059 42.5945 0.765714 43.0206 0.436362 43.678C0.314543 43.9211 0.148627 44.3675 0.156068 44.6263C0.157722 44.687 0.10701 44.7581 0.0629126 44.8093C-0.0495356 44.9397 0.00117621 45.0508 0.117483 45.1166C0.455103 45.3071 0.601451 45.6819 0.901313 45.9063C1.0292 46.0019 1.05207 46.1292 1.07522 46.2871C1.10719 46.5021 1.52887 46.7808 1.72511 46.7356C1.84665 46.7075 1.9252 46.4842 2.09084 46.6487C2.17765 46.7353 2.2438 46.8428 2.32097 46.9434" fill="#FFA185"/>
<path fill-rule="evenodd" clip-rule="evenodd" d="M26.6618 29.4269C26.793 29.4487 26.9305 29.4713 27.1204 29.5027C27.0454 29.6433 26.9919 29.743 26.936 29.8478C27.2929 30.2047 27.6644 30.5762 28.0475 30.9596C28.1093 30.9596 28.1848 30.9483 28.2559 30.9612C29.099 31.1172 29.6604 30.6388 30.1286 30.0619C30.4944 29.6113 30.8088 29.1149 31.0536 28.5733C31.2063 28.2352 31.3427 27.9237 31.2336 27.4643C30.9778 28.0265 30.7499 28.527 30.5219 29.0278C30.4814 29.0146 30.4409 29.0016 30.4001 28.9884C30.4186 28.893 30.4213 28.7908 30.4583 28.7032C30.6107 28.341 30.784 27.9871 30.9276 27.6219C30.9913 27.4602 31.1277 27.2587 30.7802 27.1834C30.673 27.1603 30.6101 26.9291 30.5283 26.7921C30.4566 26.6719 30.3872 26.5504 30.3304 26.4534C29.979 26.4211 29.9757 26.7284 29.7566 26.8552C29.8076 26.6617 29.8585 26.4682 29.9258 26.2136C29.8133 26.1246 29.6631 26.0055 29.5129 25.8862C29.4181 25.9804 29.2924 26.1306 29.1759 25.8536C29.0494 25.5543 28.8625 25.4377 28.5596 25.6343C28.532 25.6522 28.475 25.6659 28.4568 25.6511C28.106 25.362 27.8992 25.65 27.7369 25.871C27.3494 26.3993 27.167 27.0338 26.9349 27.6374C26.8803 27.779 26.7615 28.1117 27.1612 28.1277C27.1838 28.1285 27.2011 28.2528 27.2207 28.3195C27.1375 28.3396 27.0096 28.4041 26.9779 28.3721C26.7538 28.1475 26.6331 28.4408 26.6551 28.4923C26.7899 28.809 26.4777 29.1149 26.6618 29.4269" fill="#FFA185"/>
<path fill-rule="evenodd" clip-rule="evenodd" d="M29.3835 13.3872C29.2953 13.4754 29.2068 13.5639 29.0726 13.6978C29.0481 13.4853 29.0277 13.3101 29.0054 13.1188C28.6961 13.054 28.3772 12.9724 28.0534 12.9245C27.8577 12.8955 27.651 12.8964 27.4559 12.9264C27.3071 12.9496 27.4239 13.2268 27.1464 13.2511C26.967 13.2668 26.8292 13.5716 26.7015 13.7838C26.5979 13.9561 26.7531 14.329 26.3595 14.3067C26.346 14.5506 26.3325 14.7948 26.3185 15.0387C26.3174 15.0624 26.3118 15.0858 26.3083 15.1095L25.1915 16.2263C25.0719 16.2263 24.9451 16.2108 24.8241 16.2299C24.6375 16.2599 24.4366 16.4448 24.5322 16.5595C24.745 16.8144 24.3636 16.9905 24.5149 17.1986C25.0961 17.3728 25.2794 17.3921 25.7524 17.3094C25.6338 17.5655 25.5308 17.7887 25.4012 18.0693C25.4767 18.1417 25.5762 18.3184 25.6744 18.3179C26.2936 18.3132 26.9455 18.4703 27.4975 18.0307C27.6472 17.9113 27.828 17.8179 27.9443 17.6721C28.2097 17.3397 28.4473 16.985 28.6895 16.6344C28.8089 16.4616 28.9108 16.2764 29.0255 16.1C29.203 15.8269 29.1503 15.4333 29.4758 15.2379C29.4265 14.9067 29.6134 14.6561 29.7327 14.3703C29.895 13.982 29.7944 13.6105 29.3835 13.3872" fill="#FFA185"/>
<path fill-rule="evenodd" clip-rule="evenodd" d="M52.5805 2.24517C52.2875 2.24517 52.0871 2.24489 51.8871 2.24517C51.6189 2.24572 51.3287 2.2008 51.2672 2.5883C51.2606 2.6313 51.1603 2.69717 51.1123 2.69028C50.7948 2.64315 50.7124 2.94328 50.5181 3.0753C49.9909 3.43359 49.9131 4.02367 49.7814 4.56937C49.7062 4.88053 49.8068 5.10378 50.1609 5.31572C50.5583 5.55357 51.0558 5.7013 51.3287 6.13345C51.5696 6.13814 51.7666 6.51489 52.048 6.21338C52.0888 6.16983 52.1792 6.15522 52.2462 6.15633C53.1948 6.17452 53.7885 5.62991 54.2843 4.90369C54.5359 4.53547 54.8509 4.2064 54.9496 3.75302C54.9901 3.56699 55.0138 3.37626 55.0271 3.18637C55.0317 3.12408 54.9951 3.01604 54.9515 3.00033C54.5698 2.86391 54.2923 2.53842 53.9221 2.40585C53.4657 2.24269 52.9776 2.19363 52.5805 2.24517" fill="#FFA185"/>
<path fill-rule="evenodd" clip-rule="evenodd" d="M53.7853 38.7052C53.6754 38.878 53.5946 39.0053 53.4375 39.2525C53.4022 38.9907 53.3887 38.9011 53.3785 38.8113C53.3454 38.5134 53.346 38.5139 52.9695 38.4756C52.9224 38.4706 52.8499 38.477 52.8331 38.4502C52.6614 38.1796 52.3932 38.1038 52.1226 38.1854C51.8158 38.2777 51.4865 38.3935 51.2478 38.5947C50.3165 39.3796 49.7686 40.4316 49.3431 41.5478C49.2709 41.7383 49.3329 41.9797 49.3329 42.1947C49.4445 42.1823 49.5321 42.1726 49.6201 42.1627C49.601 42.4322 49.6619 42.6321 49.9772 42.6957C50.0718 42.715 50.201 42.8561 50.2104 42.9512C50.2421 43.2759 50.5756 43.1177 50.6919 43.2866C50.8777 42.9909 51.1974 43.3489 51.4063 43.1375C51.6064 42.9352 51.8803 42.7792 52.0126 42.5417C52.3039 42.0183 52.5828 41.4737 52.7534 40.9037C52.8405 40.6121 52.9698 40.4184 53.1944 40.2861C53.559 40.0719 53.8424 39.8005 54.0204 39.4146C54.169 39.0924 54.1753 39.0954 53.7853 38.7052" fill="#FFA185"/>
<path fill-rule="evenodd" clip-rule="evenodd" d="M39.6982 29.9631C39.6982 29.8884 39.7161 29.7845 39.6918 29.6914C39.6756 29.6291 39.5689 29.5866 39.5595 29.5268C39.5493 29.4615 39.6259 29.3866 39.6268 29.3154C39.6273 29.2523 39.5386 29.1749 39.5559 29.1283C39.5876 29.0426 39.6587 28.9632 39.7318 28.9037C39.7803 28.864 39.861 28.8635 39.9608 28.8364C39.914 28.9993 39.8762 29.1305 39.8382 29.262C40.1036 29.1002 40.3985 28.9712 40.2687 28.5812C40.159 28.6281 40.0512 28.6747 39.9175 28.732C39.8745 28.2626 40.3097 28.5068 40.4773 28.2847C40.232 28.3136 40.0686 28.1447 39.8219 28.1775C39.7075 28.1926 39.5587 27.9495 39.3834 27.7836C39.14 27.9823 38.8672 28.2047 38.548 28.4652C38.5169 28.2748 38.4946 28.1392 38.4676 27.9741C38.1068 27.9043 37.7369 27.833 37.3629 27.7607C37.1708 28.006 37.0206 28.2298 36.8376 28.4225C36.6789 28.5889 36.4606 28.7 36.3076 28.8706C35.876 29.3524 35.6803 29.9606 35.5028 30.5623C35.4392 30.7776 35.3692 31.1182 35.7807 31.1758C35.7787 31.571 36.1954 31.63 36.3834 31.8805C36.6191 32.1942 37.0358 32.2482 37.4856 32.0666C38.1592 31.7945 38.6018 31.2687 39.032 30.7566C39.2473 30.5 39.489 30.258 39.6982 29.9631" fill="#FFA185"/>
<path fill-rule="evenodd" clip-rule="evenodd" d="M27.3115 39.7107C27.1902 39.752 27.0731 39.7917 26.9389 39.8375C26.9116 39.2052 27.565 39.028 27.656 38.4459C27.5237 38.5043 27.4159 38.5291 27.3379 38.5911C27.2128 38.6909 27.1075 38.8149 26.9515 38.9709C27.0047 38.654 27.04 38.5812 27.2208 38.3643C26.8256 37.8864 26.8256 37.8864 26.359 37.8848C26.1024 38.1739 25.8833 38.5548 25.5545 38.7554C25.1915 38.9773 25.0846 39.356 24.817 39.6274C24.5612 39.8873 24.3914 40.2412 24.2219 40.5733C24.1288 40.7552 24.0497 40.9876 24.08 41.1788C24.1186 41.4205 24.2216 41.7758 24.3925 41.8444C24.6736 41.9577 24.6108 42.1564 24.6993 42.3273C24.8205 42.5607 24.9865 42.7878 25.2907 42.838C25.4685 42.8672 25.6802 43.0028 25.8105 42.9441C26.1277 42.8011 26.4554 42.6189 26.69 42.3689C27.1326 41.8971 27.5284 41.3781 27.9071 40.8522C28.0022 40.7205 27.9583 40.489 27.9865 40.2285C27.8602 40.3305 27.8101 40.3708 27.7037 40.4565C27.7588 40.0731 27.4237 39.9416 27.3115 39.7107" fill="#FFA185"/>
<path fill-rule="evenodd" clip-rule="evenodd" d="M31.2631 67.2774C31.4684 67.1647 31.5673 67.1104 31.6632 67.0575C31.8322 67.6679 31.8741 67.6996 32.3732 67.4797C32.2415 67.7865 32.1359 68.0318 32.021 68.2985C32.1513 68.3741 32.2847 68.4518 32.4195 68.5301C32.6632 68.2867 32.9104 68.0395 33.1805 67.7691C33.3431 68.1354 32.8955 68.3046 32.9396 68.6582C33.3411 68.7142 33.574 68.441 33.8053 68.1897C33.9315 68.0524 33.9999 67.8609 34.1299 67.7286C34.7098 67.1399 35.2307 66.5035 35.7163 65.8365C35.7599 65.7767 35.8202 65.7288 35.8743 65.677C36.167 65.3978 36.4737 65.1279 36.4955 64.6729C36.2033 64.494 36.0482 64.7697 35.8495 64.9403C35.6474 64.6059 36.1149 64.5613 36.0939 64.3149C36.076 64.0178 35.5107 64.3968 35.6543 63.9111H34.8405C34.6076 64.0751 34.3714 64.2375 34.1399 64.4058C33.9075 64.5748 33.754 64.8176 33.4696 64.9551C33.1934 65.0891 33.0104 65.4049 32.7673 65.6191C32.6089 65.7588 32.5083 65.9509 32.255 66.0137C32.0717 66.0589 31.9739 66.337 31.6955 66.3012C31.618 66.291 31.4783 66.431 31.4389 66.5305C31.3637 66.7201 31.3405 66.9299 31.2631 67.2774" fill="#FFA185"/>
<path fill-rule="evenodd" clip-rule="evenodd" d="M36.4275 17.0068C36.1689 17.0239 35.9904 16.8902 35.7539 17.0608C35.874 17.1021 35.9611 17.1322 36.0562 17.165C35.9675 17.4662 35.8688 17.7655 35.7963 18.0709C35.7779 18.1492 35.8189 18.3038 35.8732 18.3267C36.1747 18.454 36.266 18.7784 36.5008 18.9562C36.6047 19.035 36.7604 19.0606 36.8963 19.076C36.9644 19.0835 37.0446 18.9807 37.1126 18.9878C37.1956 18.9967 37.2717 19.0692 37.359 19.1188C37.488 18.6629 37.4814 18.6444 37.9893 18.4714C38.2933 18.3677 38.3564 18.069 38.572 17.881C38.6202 17.9838 38.6668 18.083 38.7189 18.1944C38.7947 18.115 38.9223 18.0428 38.922 17.9711C38.9181 17.0757 38.919 17.0556 39.3277 16.5189C39.5581 16.9238 39.1166 17.1581 39.0926 17.5541C39.202 17.537 39.3655 17.5497 39.3845 17.5031C39.5766 17.0363 39.8693 16.5953 39.5691 16.0353C39.476 15.8613 39.4592 15.7701 39.25 15.7665C39.121 15.7646 38.9824 15.6888 38.8674 15.6161C38.5695 15.4278 38.2826 15.2228 37.9643 15.0059C37.8915 15.1144 37.8242 15.215 37.8405 15.1905C37.5894 15.3655 37.3276 14.8942 37.2857 15.3856C37.2736 15.5251 36.9619 15.1924 36.9619 15.5576C36.9619 15.6987 36.7025 15.8401 36.5722 15.9705C36.6187 16.0912 36.6628 16.2064 36.7072 16.3216C36.6703 16.3472 36.6333 16.3729 36.5961 16.3985C36.5308 16.2742 36.4655 16.1499 36.3831 15.9936C36.2489 16.2218 36.1709 16.3539 36.0686 16.5272C36.1797 16.6755 36.3034 16.8411 36.4275 17.0068" fill="#FFA185"/>
<path fill-rule="evenodd" clip-rule="evenodd" d="M61.6926 39.4572C61.8657 39.2389 62.0027 39.0661 62.1548 38.8738C62.2323 39.0322 62.2816 39.1328 62.3458 39.264C62.6349 39.1284 62.8295 38.9046 62.9951 38.6712C63.3612 38.155 63.6442 37.5856 64.0152 37.0685C64.2434 36.7508 64.2569 36.3514 64.1668 35.938C63.8242 35.8685 63.75 36.2712 63.4645 36.3729V35.6412C62.9249 35.5651 62.4048 35.4918 61.928 35.4248C61.4278 35.874 61.0984 36.3594 60.865 36.92C60.7316 37.2394 60.4568 37.4792 60.3733 37.8446C60.3402 37.9891 60.5254 38.1834 60.2975 38.2909C60.2936 38.2925 60.3653 38.4683 60.3675 38.4675C60.7396 38.3333 60.8647 38.8729 61.2227 38.7864C61.2459 38.7806 61.3093 38.919 61.3448 38.9948C61.3842 39.078 61.4019 39.1734 61.4504 39.25C61.4862 39.3073 61.5556 39.3431 61.6926 39.4572" fill="#FFA185"/>
<path fill-rule="evenodd" clip-rule="evenodd" d="M45.0444 48.5481C44.9369 48.7967 44.8586 48.9777 44.7467 49.236C44.6756 49.0477 44.6428 48.9615 44.6081 48.87C44.5745 48.8906 44.5193 48.905 44.5122 48.932C44.4444 49.1897 44.322 49.4099 44.136 49.6056C44.0246 49.7227 43.9442 49.8735 43.8684 50.0187C43.7347 50.2758 43.5451 50.4514 43.238 50.506C43.1898 50.4084 43.1402 50.3075 43.1171 50.2607C42.9748 50.3671 42.8202 50.4831 42.705 50.5694C42.705 50.6631 42.6951 50.7033 42.7064 50.7108C42.8425 50.7992 42.9817 50.8827 43.1088 50.9605C43.0719 51.1658 43.0388 51.3518 42.9889 51.6305C43.2141 51.521 43.3373 51.461 43.5148 51.3744C43.6131 51.5723 43.7118 51.7713 43.8179 51.9852C43.9188 51.9965 44.037 52.0102 44.1817 52.0265V52.3605C44.5593 52.6433 44.8683 52.6053 45.1957 52.3068C45.5523 51.9816 45.9544 51.7068 46.3182 51.3196C46.1653 51.2184 46.0176 51.1209 45.8555 51.0139C45.9382 50.7108 46.0867 50.4401 46.3009 50.1755C46.515 49.9107 46.6324 49.5673 46.7865 49.269C46.5663 48.9976 46.3924 49.1985 46.1904 49.2834C46.1818 49.2076 46.1468 49.1268 46.1708 49.0723C46.3215 48.7333 46.2562 48.5657 45.9368 48.5511C45.6369 48.537 45.336 48.5481 45.0444 48.5481" fill="#FFA185"/>
<path fill-rule="evenodd" clip-rule="evenodd" d="M66.4365 51.5203C66.3105 51.7066 66.2077 51.859 66.0793 52.0489C66.0459 51.945 66.0002 51.878 66.0106 51.822C66.0619 51.5506 66.1283 51.2821 66.1978 50.9759H65.7609C65.7232 51.0545 65.6769 51.1507 65.5854 51.3411V50.7271C65.4999 50.697 65.4272 50.6879 65.3762 50.6502C65.2596 50.5633 65.0749 50.3663 65.0559 50.3817C64.8649 50.5388 64.629 50.444 64.4438 50.5151C64.1676 50.6209 63.9053 50.8056 63.9088 51.1578C63.91 51.2631 64.0494 51.3802 64.0285 51.4687C64.0114 51.5406 63.8185 51.5566 63.7608 51.6379C63.7137 51.7044 63.7099 51.8824 63.7584 51.9213C63.9532 52.0767 63.9102 52.2779 63.897 52.4664C63.8802 52.7018 63.9833 52.8448 64.1922 52.9041C64.4154 52.9675 64.4675 53.1105 64.5144 53.3241C64.5808 53.6259 64.7878 53.8265 65.1378 53.8117C65.2588 53.8067 65.3842 53.8095 65.5016 53.8351C65.8003 53.9004 66.1768 53.8287 66.27 53.6096C66.4974 53.075 66.8264 52.5698 66.7653 51.9406C66.7413 51.6953 66.5936 51.6255 66.4365 51.5203" fill="#FFA185"/>
<path fill-rule="evenodd" clip-rule="evenodd" d="M42.3325 37.9976C42.1456 38.0525 41.9505 38.1095 41.7107 38.1798C41.609 37.9376 41.5789 37.7049 41.7934 37.4886C41.5299 37.2491 41.3546 37.6101 41.0964 37.571C41.0724 37.4406 41.0467 37.3034 41.0219 37.1689C40.8196 36.9523 40.6372 37.3519 40.3927 37.1634C40.1428 36.9704 40.0796 37.3869 39.8671 37.4346C39.7478 37.4613 39.6362 37.5856 39.551 37.6903C39.2688 38.0365 39.2247 38.5263 38.8446 38.8286C38.7537 38.9008 38.8022 39.1491 38.7818 39.3699C39.2032 39.1629 39.2288 39.8315 39.6348 39.6731C39.7597 39.8751 39.6417 40.2414 40.0984 40.2852C40.1466 40.2031 40.2221 40.0743 40.3296 39.8908C40.4211 40.0818 40.4655 40.1744 40.511 40.2698C40.7667 40.3304 40.8839 40.1099 40.9679 39.9696C41.2471 39.5025 41.6087 39.145 42.0764 38.8655C42.3642 38.6936 42.5221 38.4133 42.3325 37.9976" fill="#FFA185"/>
<path fill-rule="evenodd" clip-rule="evenodd" d="M45.9897 18.028C46.3444 18.3058 46.606 18.5108 46.9436 18.7757H47.575C47.8208 18.4201 47.9008 17.9524 48.2632 17.6589C48.3012 17.1639 48.6435 16.8572 48.9409 16.5121C49.0355 16.4021 49.0151 16.1932 49.0553 15.9887C48.9467 15.9584 48.8392 15.9606 48.783 15.908C48.2061 15.3686 47.6626 15.6718 47.2029 16.0397C46.8105 16.3536 46.4792 16.769 46.2011 17.1918C46.0435 17.4313 46.0476 17.7772 45.9897 18.028" fill="#FFA185"/>
</svg>
