<svg width="16" height="16" viewBox="0 0 16 16" fill="none" xmlns="http://www.w3.org/2000/svg">
<path d="M2.4855 4.62884C3.50132 4.62884 4.31744 3.81385 4.31744 2.81871C4.31744 1.82357 3.49264 1 2.4855 1C1.46969 1 0.653564 1.81499 0.653564 2.81013C0.653564 3.80528 1.46969 4.62884 2.4855 4.62884Z" fill="#8EA0D2"/>
<path d="M2.48533 9.75039C3.50114 9.75039 4.31727 8.9354 4.31727 7.94026C4.31727 6.94512 3.49246 6.13013 2.48533 6.13013C1.46951 6.13013 0.653388 6.94512 0.653388 7.94026C0.644706 8.9354 1.46951 9.75039 2.48533 9.75039Z" fill="#8EA0D2"/>
<path d="M2.4855 14.7947C3.49264 14.7947 4.31744 13.9797 4.31744 12.9846C4.31744 11.9895 3.49264 11.1745 2.4855 11.1745C1.47837 11.1745 0.653564 11.9895 0.653564 12.9846C0.653564 13.9883 1.46969 14.7947 2.4855 14.7947Z" fill="black"/>
<path d="M8.1896 4.62884C9.20542 4.62884 10.0215 3.81385 10.0215 2.81871C10.0215 1.82357 9.20542 1 8.1896 1C7.17379 1 6.35767 1.81499 6.35767 2.81013C6.35767 3.81385 7.18247 4.62884 8.1896 4.62884Z" fill="#8EA0D2"/>
<path d="M8.1896 9.75039C9.20542 9.75039 10.0215 8.9354 10.0215 7.94026C10.0215 6.94512 9.19674 6.13013 8.1896 6.13013C7.17379 6.13013 6.35767 6.94512 6.35767 7.94026C6.35767 8.9354 7.18247 9.75039 8.1896 9.75039Z" fill="#8EA0D2"/>
<path d="M8.1896 14.8033C9.20542 14.8033 10.0215 13.9884 10.0215 12.9932C10.0215 11.9895 9.19674 11.1831 8.1896 11.1831C7.17379 11.1831 6.35767 11.9981 6.35767 12.9932C6.35767 13.9884 7.18247 14.8033 8.1896 14.8033Z" fill="#8EA0D2"/>
<path d="M13.6418 4.62884C14.6576 4.62884 15.4737 3.81385 15.4737 2.81871C15.4737 1.82357 14.6489 1 13.6418 1C12.6259 1 11.8098 1.81499 11.8098 2.81013C11.8098 3.80528 12.6259 4.62884 13.6418 4.62884Z" fill="#8EA0D2"/>
<path d="M13.6418 9.75039C14.6576 9.75039 15.4738 8.9354 15.4738 7.94026C15.4738 6.94512 14.649 6.13013 13.6418 6.13013C12.626 6.13013 11.8099 6.94512 11.8099 7.94026C11.8012 8.9354 12.626 9.75039 13.6418 9.75039Z" fill="#8EA0D2"/>
<path d="M13.6418 14.8033C14.6576 14.8033 15.4738 13.9884 15.4738 12.9932C15.4738 11.9895 14.649 11.1831 13.6418 11.1831C12.626 11.1831 11.8099 11.9981 11.8099 12.9932C11.8012 13.9884 12.626 14.8033 13.6418 14.8033Z" fill="#8EA0D2"/>
</svg>
