<svg width="16" height="14" viewBox="0 0 16 14" fill="none" xmlns="http://www.w3.org/2000/svg">
<path d="M2.48538 3.62884C3.5012 3.62884 4.31732 2.81385 4.31732 1.81871C4.31732 0.823567 3.49251 0 2.48538 0C1.46957 0 0.653442 0.814988 0.653442 1.81013C0.653442 2.80528 1.46957 3.62884 2.48538 3.62884Z" fill="#FF6C40"/>
<path d="M2.48533 8.75039C3.50114 8.75039 4.31727 7.9354 4.31727 6.94026C4.31727 5.94512 3.49246 5.13013 2.48533 5.13013C1.46951 5.13013 0.653388 5.94512 0.653388 6.94026C0.644706 7.9354 1.46951 8.75039 2.48533 8.75039Z" fill="#FF6C40"/>
<path d="M2.48538 13.7948C3.49251 13.7948 4.31732 12.9798 4.31732 11.9847C4.31732 10.9895 3.49251 10.1746 2.48538 10.1746C1.47825 10.1746 0.653442 10.9895 0.653442 11.9847C0.653442 12.9884 1.46957 13.7948 2.48538 13.7948Z" fill="black"/>
<path d="M8.1896 3.62884C9.20542 3.62884 10.0215 2.81385 10.0215 1.81871C10.0215 0.823567 9.20542 0 8.1896 0C7.17379 0 6.35767 0.814988 6.35767 1.81013C6.35767 2.81385 7.18247 3.62884 8.1896 3.62884Z" fill="#FF6C40"/>
<path d="M8.1896 8.75039C9.20542 8.75039 10.0215 7.9354 10.0215 6.94026C10.0215 5.94512 9.19674 5.13013 8.1896 5.13013C7.17379 5.13013 6.35767 5.94512 6.35767 6.94026C6.35767 7.9354 7.18247 8.75039 8.1896 8.75039Z" fill="#FF6C40"/>
<path d="M8.1896 13.8034C9.20542 13.8034 10.0215 12.9884 10.0215 11.9932C10.0215 10.9895 9.19674 10.1831 8.1896 10.1831C7.17379 10.1831 6.35767 10.9981 6.35767 11.9932C6.35767 12.9884 7.18247 13.8034 8.1896 13.8034Z" fill="#FF6C40"/>
<path d="M13.6419 3.62884C14.6577 3.62884 15.4738 2.81385 15.4738 1.81871C15.4738 0.823567 14.649 0 13.6419 0C12.6261 0 11.8099 0.814988 11.8099 1.81013C11.8099 2.80528 12.6261 3.62884 13.6419 3.62884Z" fill="#FF6C40"/>
<path d="M13.6419 8.75039C14.6578 8.75039 15.4739 7.9354 15.4739 6.94026C15.4739 5.94512 14.6491 5.13013 13.6419 5.13013C12.6261 5.13013 11.81 5.94512 11.81 6.94026C11.8013 7.9354 12.6261 8.75039 13.6419 8.75039Z" fill="#FF6C40"/>
<path d="M13.6419 13.8034C14.6578 13.8034 15.4739 12.9884 15.4739 11.9932C15.4739 10.9895 14.6491 10.1831 13.6419 10.1831C12.6261 10.1831 11.81 10.9981 11.81 11.9932C11.8013 12.9884 12.6261 13.8034 13.6419 13.8034Z" fill="#FF6C40"/>
</svg>
