<svg width="206" height="59" viewBox="0 0 206 59" fill="none" xmlns="http://www.w3.org/2000/svg">
<path d="M5.21965 10.5684C8.11366 10.5684 10.4388 8.2186 10.4388 5.34932C10.4388 2.48004 8.08893 0.105469 5.21965 0.105469C2.32564 0.105469 0.000534058 2.45531 0.000534058 5.32458C0.000534058 8.19386 2.32564 10.5684 5.21965 10.5684Z" fill="#FF6C40"/>
<path d="M5.21931 25.3357C8.11332 25.3357 10.4384 22.9859 10.4384 20.1166C10.4384 17.2473 8.08858 14.8975 5.21931 14.8975C2.3253 14.8975 0.000193503 17.2473 0.000193503 20.1166C-0.0245416 22.9859 2.3253 25.3357 5.21931 25.3357Z" fill="#FF6C40"/>
<path d="M5.2193 39.8796C8.08858 39.8796 10.4384 37.5298 10.4384 34.6605C10.4384 31.7912 8.08858 29.4414 5.2193 29.4414C2.35002 29.4414 0.000183105 31.7912 0.000183105 34.6605C0.000183105 37.5545 2.32529 39.8796 5.2193 39.8796Z" fill="white"/>
<path d="M21.4703 10.5684C24.3643 10.5684 26.6894 8.2186 26.6894 5.34932C26.6894 2.48004 24.3643 0.105469 21.4703 0.105469C18.5763 0.105469 16.2512 2.45531 16.2512 5.32458C16.2512 8.21859 18.601 10.5684 21.4703 10.5684Z" fill="#FF6C40"/>
<path d="M21.4703 25.3357C24.3643 25.3357 26.6894 22.9859 26.6894 20.1166C26.6894 17.2473 24.3396 14.8975 21.4703 14.8975C18.5763 14.8975 16.2512 17.2473 16.2512 20.1166C16.2512 22.9859 18.601 25.3357 21.4703 25.3357Z" fill="#FF6C40"/>
<path d="M21.4703 39.904C24.3643 39.904 26.6894 37.5542 26.6894 34.6849C26.6894 31.7909 24.3396 29.4658 21.4703 29.4658C18.5763 29.4658 16.2512 31.8157 16.2512 34.6849C16.2512 37.5542 18.601 39.904 21.4703 39.904Z" fill="#FF6C40"/>
<path d="M37.004 10.5684C39.898 10.5684 42.2231 8.2186 42.2231 5.34932C42.2231 2.48004 39.8732 0.105469 37.004 0.105469C34.1099 0.105469 31.7848 2.45531 31.7848 5.32458C31.7848 8.19386 34.1099 10.5684 37.004 10.5684Z" fill="#FF6C40"/>
<path d="M37.004 25.3357C39.898 25.3357 42.2231 22.9859 42.2231 20.1166C42.2231 17.2473 39.8733 14.8975 37.004 14.8975C34.11 14.8975 31.7849 17.2473 31.7849 20.1166C31.7601 22.9859 34.11 25.3357 37.004 25.3357Z" fill="#FF6C40"/>
<path d="M37.004 39.904C39.898 39.904 42.2231 37.5542 42.2231 34.6849C42.2231 31.7909 39.8733 29.4658 37.004 29.4658C34.11 29.4658 31.7849 31.8157 31.7849 34.6849C31.7601 37.5542 34.11 39.904 37.004 39.904Z" fill="#FF6C40"/>
<path d="M60.1808 38.049C59.3398 37.6286 58.6967 36.9854 58.2267 36.1939C57.7567 35.4024 57.5341 34.5119 57.5341 33.5473C57.5341 32.5826 57.7567 31.6921 58.2267 30.9006C58.6967 30.1091 59.3398 29.5154 60.2303 29.0455C61.0713 28.5755 61.9865 28.4023 63.0501 28.4023C63.8416 28.4023 64.5342 28.5508 65.2268 28.7734C65.8699 28.996 66.4388 29.367 66.9088 29.8865L66.2162 30.579C65.3752 29.7875 64.361 29.367 63.0995 29.367C62.2585 29.367 61.5165 29.5649 60.8239 29.9359C60.1313 30.307 59.6119 30.8264 59.2409 31.42C58.8698 32.0631 58.672 32.7557 58.672 33.5473C58.672 34.3388 58.8698 35.0314 59.2409 35.6745C59.6119 36.3176 60.1808 36.7876 60.8239 37.1586C61.5165 37.5296 62.2585 37.7275 63.0995 37.7275C64.361 37.7275 65.4246 37.307 66.2162 36.5155L66.9088 37.2081C66.4388 37.678 65.8946 38.049 65.2268 38.3211C64.5837 38.5438 63.8416 38.6922 63.0501 38.6922C61.937 38.6922 61.0218 38.4695 60.1808 38.049Z" fill="white"/>
<path d="M70.7674 38.0487C69.9265 37.5788 69.2833 36.9851 68.7639 36.1936C68.2939 35.4021 68.0713 34.5116 68.0713 33.5964C68.0713 32.6317 68.2939 31.7413 68.7639 30.9992C69.2339 30.2077 69.877 29.6141 70.7674 29.1441C71.6084 28.6741 72.5731 28.501 73.5873 28.501C74.6014 28.501 75.5908 28.7236 76.4071 29.1441C77.2481 29.6141 77.8912 30.2077 78.4106 30.9992C78.8806 31.7907 79.1527 32.6812 79.1527 33.6459C79.1527 34.6106 78.93 35.501 78.4106 36.2925C77.9406 37.0841 77.2481 37.6777 76.4071 38.1477C75.5661 38.6176 74.6509 38.7908 73.5873 38.7908C72.5236 38.6919 71.6084 38.4692 70.7674 38.0487ZM75.8134 37.2077C76.4565 36.8367 77.0254 36.3668 77.3965 35.7236C77.7675 35.0805 77.9654 34.3879 77.9654 33.5964C77.9654 32.8049 77.7675 32.1123 77.3965 31.4692C77.0254 30.8261 76.4565 30.3066 75.8134 29.9851C75.1703 29.6141 74.3788 29.4162 73.5378 29.4162C72.6968 29.4162 71.9547 29.6141 71.2622 29.9851C70.5696 30.3561 70.0501 30.8755 69.6791 31.4692C69.3081 32.0628 69.1102 32.8049 69.1102 33.5964C69.1102 34.3879 69.3081 35.0805 69.6791 35.7236C70.0501 36.3668 70.619 36.8367 71.2622 37.2077C71.9547 37.5788 72.6968 37.7767 73.5378 37.7767C74.3788 37.7767 75.1703 37.5788 75.8134 37.2077Z" fill="white"/>
<path d="M92.4849 28.5254V38.5926H91.4213V30.5289L87.34 37.3558H86.8205L82.6898 30.6031V38.6421H81.6261V28.5254H82.5661L87.1173 35.9954L91.6191 28.5254H92.4849Z" fill="white"/>
<path d="M106.831 28.5254V38.5926H105.768V30.5289L101.637 37.3064H101.117L96.9867 30.5784V38.5926H95.9231V28.5254H96.863L101.414 35.9954L105.916 28.5254H106.831Z" fill="white"/>
<path d="M111.333 37.5785C110.591 36.8364 110.171 35.7233 110.171 34.3381V28.5254H111.284V34.2392C111.284 35.4018 111.556 36.2922 112.125 36.8364C112.693 37.4053 113.46 37.7269 114.499 37.7269C115.563 37.7269 116.354 37.4548 116.923 36.8364C117.492 36.2675 117.764 35.4018 117.764 34.2392V28.5254H118.828V34.2887C118.828 35.7233 118.457 36.7869 117.715 37.529C116.973 38.271 115.909 38.6421 114.549 38.6421C113.188 38.6421 112.075 38.3205 111.333 37.5785Z" fill="white"/>
<path d="M130.973 28.5254V38.5926H130.033L123.255 30.43V38.5926H122.142V28.5254H123.082L129.86 36.688V28.5254H130.973Z" fill="white"/>
<path d="M135.475 28.5254H134.361V38.5926H135.475V28.5254Z" fill="white"/>
<path d="M140.669 38.049C139.828 37.6286 139.185 36.9854 138.715 36.1939C138.245 35.4024 138.022 34.5119 138.022 33.5473C138.022 32.5826 138.245 31.6921 138.715 30.9006C139.185 30.1091 139.828 29.5154 140.718 29.0455C141.559 28.5755 142.475 28.4023 143.538 28.4023C144.33 28.4023 145.022 28.5508 145.715 28.7734C146.358 28.996 146.927 29.367 147.397 29.8865L146.704 30.579C145.863 29.7875 144.849 29.367 143.588 29.367C142.747 29.367 142.005 29.5649 141.312 29.9359C140.619 30.307 140.1 30.8264 139.729 31.42C139.358 32.0631 139.16 32.7557 139.16 33.5473C139.16 34.3388 139.333 35.0314 139.729 35.6745C140.1 36.3176 140.669 36.7876 141.312 37.1586C142.005 37.5296 142.747 37.7275 143.588 37.7275C144.849 37.7275 145.913 37.307 146.704 36.5155L147.397 37.2081C146.927 37.678 146.383 38.049 145.715 38.3211C145.072 38.5438 144.33 38.6922 143.538 38.6922C142.45 38.6922 141.51 38.4695 140.669 38.049Z" fill="white"/>
<path d="M156.029 35.8965H150.192L148.93 38.5926H147.768L152.542 28.5254H153.655L158.429 38.5926H157.266L156.029 35.8965ZM155.634 35.0802L153.135 29.6385L150.637 35.0802H155.634Z" fill="white"/>
<path d="M161.694 29.4653H157.984V28.5254H166.492V29.4653H162.782V38.5926H161.644V29.4653H161.694Z" fill="white"/>
<path d="M169.411 28.5254H168.298V38.5926H169.411V28.5254Z" fill="white"/>
<path d="M174.606 38.0487C173.765 37.5788 173.121 36.9851 172.602 36.1936C172.132 35.4021 171.909 34.5116 171.909 33.5964C171.909 32.6317 172.132 31.7413 172.602 30.9992C173.072 30.2077 173.715 29.6141 174.606 29.1441C175.447 28.6741 176.411 28.501 177.425 28.501C178.439 28.501 179.429 28.7236 180.245 29.1441C181.086 29.6141 181.729 30.2077 182.249 30.9992C182.719 31.7907 182.991 32.6812 182.991 33.6459C182.991 34.6106 182.768 35.501 182.249 36.2925C181.779 37.0841 181.086 37.6777 180.245 38.1477C179.404 38.6176 178.489 38.7908 177.425 38.7908C176.362 38.6919 175.447 38.4692 174.606 38.0487ZM179.676 37.2077C180.319 36.8367 180.888 36.3668 181.259 35.7236C181.63 35.0805 181.828 34.3879 181.828 33.5964C181.828 32.8049 181.63 32.1123 181.259 31.4692C180.888 30.8261 180.319 30.3066 179.676 29.9851C179.033 29.6141 178.242 29.4162 177.401 29.4162C176.56 29.4162 175.818 29.6141 175.125 29.9851C174.432 30.3561 173.913 30.8755 173.542 31.4692C173.171 32.1123 172.973 32.8049 172.973 33.5964C172.973 34.3879 173.171 35.0805 173.542 35.7236C173.913 36.3668 174.482 36.8367 175.125 37.2077C175.818 37.5788 176.56 37.7767 177.401 37.7767C178.217 37.7519 179.008 37.5788 179.676 37.2077Z" fill="white"/>
<path d="M194.196 28.5254V38.5926H193.281L186.503 30.43V38.5926H185.39V28.5254H186.305L193.083 36.688V28.5254H194.196Z" fill="white"/>
<path d="M198.277 38.3205C197.585 38.0978 197.016 37.7516 196.595 37.3805L197.016 36.5395C197.387 36.9106 197.906 37.1826 198.549 37.43C199.192 37.6526 199.86 37.7516 200.503 37.7516C201.443 37.7516 202.136 37.5537 202.631 37.2321C203.1 36.9106 203.323 36.4901 203.323 35.9212C203.323 35.5007 203.175 35.1791 202.952 34.9565C202.68 34.7339 202.383 34.536 202.012 34.3876C201.641 34.2392 201.122 34.1155 200.479 33.9671C199.687 33.7939 199.044 33.5961 198.574 33.3982C198.104 33.225 197.683 32.9282 197.362 32.5572C197.04 32.1862 196.842 31.6667 196.842 31.0731C196.842 30.5536 196.991 30.1084 197.263 29.6879C197.535 29.2674 197.956 28.9458 198.574 28.6738C199.143 28.4511 199.885 28.3027 200.751 28.3027C201.344 28.3027 201.963 28.4017 202.507 28.5253C203.076 28.6738 203.57 28.8964 203.991 29.1685L203.62 30.0095C203.199 29.7374 202.68 29.49 202.235 29.4158C201.715 29.2674 201.27 29.2179 200.751 29.2179C199.811 29.2179 199.118 29.4158 198.673 29.7374C198.203 30.0589 197.98 30.5289 197.98 31.0483C197.98 31.4688 198.129 31.7904 198.351 32.013C198.574 32.2356 198.92 32.4335 199.316 32.5819C199.687 32.7303 200.206 32.854 200.85 33.0024C201.641 33.1756 202.235 33.3734 202.705 33.5713C203.175 33.7445 203.595 34.0413 203.917 34.3628C204.238 34.7339 204.436 35.2038 204.436 35.7975C204.436 36.3169 204.288 36.7622 204.016 37.1826C203.744 37.6031 203.274 37.9247 202.705 38.1473C202.111 38.3699 201.394 38.5183 200.528 38.5183C199.761 38.6915 198.97 38.5926 198.277 38.3205Z" fill="white"/>
<path d="M70.3964 14.0807H61.6154L59.9087 17.9889H56.5695L64.46 1.24316H67.6508L75.5413 17.9889H72.1526L70.3964 14.0807ZM69.3328 11.6319L66.043 4.28559L62.7532 11.6319H69.3328Z" fill="white"/>
<path d="M95.3789 1.19336L87.7605 17.939H84.5449L76.9017 1.19336H80.4141L86.2763 14.1298L92.1633 1.19336H95.3789Z" fill="white"/>
<path d="M102.898 17.0485C101.464 16.3065 100.351 15.2923 99.5097 13.9319C98.6687 12.6209 98.2977 11.1368 98.2977 9.52905C98.2977 7.89653 98.7182 6.41242 99.5097 5.12619C100.351 3.81523 101.464 2.75162 102.898 2.00957C104.333 1.26751 105.966 0.896484 107.722 0.896484C109.478 0.896484 111.11 1.26751 112.545 2.00957C113.98 2.75162 115.093 3.76576 115.934 5.07672C116.775 6.38768 117.146 7.87179 117.146 9.47958C117.146 11.1121 116.725 12.5962 115.934 13.8824C115.093 15.1934 113.98 16.2075 112.545 16.9496C111.11 17.6916 109.478 18.0627 107.722 18.0627C105.941 18.0874 104.333 17.7906 102.898 17.0485ZM110.863 14.6987C111.803 14.1793 112.545 13.4867 113.04 12.6209C113.559 11.7305 113.831 10.7163 113.831 9.60325C113.831 8.49017 113.559 7.47603 113.04 6.58557C112.471 5.6951 111.778 4.95305 110.863 4.50781C109.923 3.98838 108.86 3.76576 107.697 3.76576C106.534 3.76576 105.471 3.98838 104.531 4.50781C103.591 5.02725 102.849 5.71984 102.354 6.58557C101.835 7.47603 101.563 8.49017 101.563 9.60325C101.563 10.7163 101.835 11.7305 102.354 12.6209C102.874 13.5114 103.616 14.2535 104.531 14.6987C105.471 15.2181 106.534 15.4407 107.697 15.4407C108.86 15.4407 109.948 15.1934 110.863 14.6987Z" fill="white"/>
<path d="M126.372 17.0492C124.937 16.3071 123.824 15.293 123.033 13.982C122.241 12.6711 121.821 11.187 121.821 9.57919C121.821 7.94667 122.241 6.46256 123.033 5.17633C123.874 3.86537 124.987 2.85123 126.372 2.10918C127.807 1.36712 129.39 0.996094 131.146 0.996094C132.581 0.996094 133.892 1.21871 135.104 1.68868C136.266 2.15865 137.28 2.85123 138.121 3.76643L136.043 5.67104C134.782 4.36007 133.224 3.71696 131.344 3.71696C130.132 3.71696 129.068 3.93958 128.153 4.45901C127.213 4.97845 126.471 5.67104 125.927 6.53677C125.407 7.42723 125.135 8.44137 125.135 9.55445C125.135 10.6675 125.407 11.6817 125.927 12.6216C126.446 13.5121 127.188 14.2047 128.153 14.6994C129.093 15.2188 130.206 15.4414 131.344 15.4414C133.199 15.4414 134.733 14.7983 136.043 13.4379L138.121 15.3425C137.28 16.2824 136.316 16.975 135.104 17.4202C133.892 17.8655 132.605 18.1128 131.146 18.1128C129.439 18.1623 127.807 17.7913 126.372 17.0492Z" fill="white"/>
<path d="M154.743 14.0807H145.962L144.256 17.9889H140.916L148.807 1.24316H151.998L159.888 17.9889H156.499L154.743 14.0807ZM153.68 11.6319L150.39 4.28559L147.1 11.6319H153.68Z" fill="white"/>
<path d="M164.637 1.19336H172.305C174.16 1.19336 175.842 1.56439 177.277 2.2075C178.712 2.90008 179.825 3.88949 180.666 5.12625C181.457 6.38774 181.878 7.87185 181.878 9.5291C181.878 11.2111 181.457 12.6457 180.666 13.932C179.874 15.1934 178.761 16.1581 177.277 16.8507C175.842 17.5433 174.16 17.8648 172.305 17.8648H164.637V1.19336ZM172.107 15.2924C173.418 15.2924 174.531 15.0698 175.496 14.5998C176.461 14.1298 177.203 13.4373 177.722 12.5963C178.242 11.7058 178.514 10.6917 178.514 9.57857C178.514 8.46549 178.242 7.40188 177.722 6.56088C177.203 5.67042 176.461 5.02731 175.496 4.55734C174.531 4.08737 173.418 3.86475 172.107 3.86475H167.828V15.3666H172.107V15.2924Z" fill="white"/>
<path d="M191.129 17.0485C189.694 16.3065 188.581 15.2923 187.74 13.9319C186.899 12.6209 186.528 11.1368 186.528 9.52905C186.528 7.89653 186.948 6.41242 187.74 5.12619C188.581 3.81523 189.694 2.75162 191.129 2.00957C192.563 1.26751 194.196 0.896484 195.952 0.896484C197.708 0.896484 199.341 1.26751 200.775 2.00957C202.21 2.75162 203.323 3.76576 204.164 5.07672C205.005 6.38769 205.376 7.87179 205.376 9.47958C205.376 11.1121 204.956 12.5962 204.164 13.8824C203.323 15.1934 202.21 16.2075 200.775 16.9496C199.341 17.6916 197.708 18.0627 195.952 18.0627C194.146 18.1616 192.563 17.7906 191.129 17.0485ZM199.069 14.6987C200.009 14.1793 200.751 13.4867 201.245 12.6209C201.765 11.7305 202.037 10.7163 202.037 9.60325C202.037 8.49017 201.765 7.47603 201.245 6.58557C200.676 5.6951 199.984 4.95305 199.069 4.50781C198.129 3.98838 197.065 3.76576 195.903 3.76576C194.74 3.76576 193.676 3.98838 192.736 4.50781C191.796 5.02725 191.054 5.71984 190.56 6.58557C190.04 7.47603 189.768 8.49017 189.768 9.60325C189.768 10.7163 190.04 11.7305 190.56 12.6209C191.079 13.5114 191.821 14.2535 192.736 14.6987C193.676 15.2181 194.74 15.4407 195.903 15.4407C197.065 15.4407 198.153 15.1934 199.069 14.6987Z" fill="white"/>
<path d="M75.6403 56.6256C75.1456 56.4277 74.7746 56.2051 74.5272 55.9083L74.824 55.4878C75.0466 55.7599 75.3929 55.9825 75.8382 56.1557C76.2834 56.3288 76.7534 56.4277 77.2481 56.4277C77.9654 56.4277 78.559 56.2793 79.0043 55.9825C79.4495 55.6857 79.6474 55.2652 79.6474 54.7457C79.6474 54.4737 79.5732 54.251 79.4 54.0779C79.2269 53.9048 79.029 53.7563 78.8064 53.6574C78.559 53.5585 78.2375 53.4595 77.817 53.3358C77.347 53.1874 76.9513 53.0638 76.6792 52.9401C76.3823 52.8164 76.135 52.6433 75.9371 52.3959C75.7392 52.1486 75.6403 51.8517 75.6403 51.456C75.6403 50.986 75.764 50.5902 76.0113 50.244C76.2587 49.8977 76.605 49.6503 77.0502 49.4772C77.4954 49.304 77.9901 49.2051 78.559 49.2051C79.0043 49.2051 79.4248 49.2545 79.8205 49.3782C80.2163 49.5019 80.5626 49.6503 80.8347 49.8729L80.5873 50.3182C80.3152 50.1203 80.0184 49.9719 79.6474 49.8482C79.3011 49.7493 78.9301 49.675 78.5343 49.675C77.817 49.675 77.2481 49.8235 76.8276 50.1203C76.3823 50.4171 76.1845 50.8376 76.1845 51.357C76.1845 51.6291 76.2587 51.8765 76.4318 52.0496C76.605 52.2228 76.8028 52.3712 77.0502 52.4701C77.2975 52.5691 77.6191 52.6927 78.0396 52.8164C78.5096 52.9648 78.9053 53.0885 79.1774 53.2122C79.4495 53.3358 79.6969 53.509 79.8947 53.7316C80.0926 53.9542 80.1916 54.251 80.1916 54.6221C80.1916 55.3394 79.9195 55.8836 79.3506 56.2546C78.8064 56.6504 78.0643 56.8482 77.1986 56.8482C76.6792 56.8977 76.1597 56.7988 75.6403 56.6256Z" fill="white"/>
<path d="M81.9725 54.1515C81.9478 54.2999 81.9477 54.4236 81.9477 54.4978C81.9477 55.1161 82.1209 55.5861 82.4672 55.9077C82.8135 56.2292 83.3329 56.4024 84.0255 56.4024C84.4213 56.4024 84.7923 56.3282 85.1138 56.2045C85.4601 56.0808 85.7322 55.8829 85.9548 55.6356L86.2022 56.0066C85.9548 56.2787 85.6333 56.5013 85.2375 56.6497C84.8418 56.7981 84.4213 56.8723 83.976 56.8723C83.1845 56.8723 82.5414 56.6745 82.0962 56.254C81.6262 55.8335 81.4036 55.2646 81.4036 54.5225C81.4036 53.8794 81.5273 53.3105 81.7993 52.791C82.0714 52.2716 82.4425 51.8758 82.9124 51.579C83.3824 51.2822 83.9018 51.1338 84.4955 51.1338C85.2375 51.1338 85.8064 51.3317 86.2517 51.7522C86.6969 52.1727 86.8948 52.7416 86.8948 53.4836C86.8948 53.6568 86.87 53.8547 86.8206 54.102H81.9725V54.1515ZM82.9124 52.1974C82.4672 52.5684 82.1704 53.0879 82.0467 53.731H86.4001C86.4001 53.6568 86.4001 53.5826 86.4001 53.4589C86.4001 52.89 86.2269 52.4448 85.8806 52.1232C85.5343 51.8016 85.0644 51.6532 84.4955 51.6532C83.8771 51.6285 83.3577 51.8016 82.9124 52.1974Z" fill="white"/>
<path d="M88.4531 54.1515C88.4283 54.2999 88.4283 54.4236 88.4283 54.4978C88.4283 55.1161 88.6015 55.5861 88.9478 55.9077C89.2941 56.2292 89.8135 56.4024 90.5061 56.4024C90.9019 56.4024 91.2729 56.3282 91.5944 56.2045C91.9407 56.0808 92.2128 55.8829 92.4354 55.6356L92.6828 56.0066C92.4354 56.2787 92.1139 56.5013 91.7181 56.6497C91.3224 56.7981 90.9019 56.8723 90.4566 56.8723C89.6651 56.8723 89.022 56.6745 88.5768 56.254C88.1068 55.8335 87.8842 55.2646 87.8842 54.5225C87.8842 53.8794 88.0079 53.3105 88.2799 52.791C88.552 52.2716 88.9231 51.8758 89.393 51.579C89.863 51.2822 90.3824 51.1338 90.9761 51.1338C91.7181 51.1338 92.287 51.3317 92.7323 51.7522C93.1775 52.1727 93.3754 52.7416 93.3754 53.4836C93.3754 53.6568 93.3506 53.8547 93.3012 54.102H88.4531V54.1515ZM89.393 52.1974C88.9478 52.5684 88.651 53.0879 88.5273 53.731H92.8807C92.8807 53.6568 92.8807 53.5826 92.8807 53.4589C92.8807 52.89 92.7075 52.4448 92.3612 52.1232C92.0149 51.8016 91.545 51.6532 90.9761 51.6532C90.3577 51.6285 89.8383 51.8016 89.393 52.1974Z" fill="white"/>
<path d="M101.093 48.8089L99.485 56.8478H98.9655L99.1881 55.7348C98.9161 56.1058 98.5698 56.3779 98.174 56.5757C97.7782 56.7736 97.3083 56.8726 96.8136 56.8726C96.0715 56.8726 95.4779 56.65 95.0326 56.2295C94.5874 55.809 94.3648 55.24 94.3648 54.5227C94.3648 53.8796 94.5132 53.3107 94.7853 52.7913C95.0574 52.2718 95.4284 51.8761 95.9231 51.5793C96.4178 51.2824 96.962 51.134 97.5556 51.134C98.1493 51.134 98.6192 51.2577 99.015 51.505C99.386 51.7524 99.6581 52.1234 99.7818 52.5934L100.549 48.7842H101.093V48.8089ZM98.2729 56.0316C98.6687 55.7842 98.9903 55.4379 99.2129 55.0174C99.4355 54.5722 99.5592 54.0775 99.5592 53.5333C99.5592 52.9397 99.386 52.4697 99.0397 52.1482C98.6934 51.8266 98.1987 51.6535 97.5556 51.6535C97.0609 51.6535 96.591 51.7771 96.1952 52.0245C95.7994 52.2718 95.4779 52.6181 95.2553 53.0634C95.0326 53.5086 94.909 53.9786 94.909 54.5227C94.909 55.1164 95.0821 55.5863 95.4284 55.9079C95.7747 56.2295 96.2694 56.4026 96.9125 56.4026C97.4072 56.4026 97.8772 56.2789 98.2729 56.0316Z" fill="white"/>
<path d="M102.874 51.2083H103.418L102.28 56.8479H101.736L102.874 51.2083ZM103.195 49.6994C103.121 49.6252 103.072 49.5263 103.072 49.4273C103.072 49.3036 103.121 49.18 103.195 49.081C103.294 48.9821 103.393 48.9326 103.542 48.9326C103.665 48.9326 103.764 48.9821 103.838 49.0563C103.913 49.1305 103.962 49.2294 103.962 49.3284C103.962 49.4768 103.913 49.5757 103.814 49.6747C103.715 49.7736 103.616 49.7983 103.467 49.7983C103.368 49.8231 103.269 49.7983 103.195 49.6994Z" fill="white"/>
<path d="M109.849 51.6285C110.195 51.95 110.368 52.3953 110.368 52.9642C110.368 53.1621 110.344 53.3599 110.294 53.5826L109.651 56.8476H109.107L109.75 53.5826C109.775 53.4094 109.8 53.2363 109.8 53.0384C109.8 52.5932 109.676 52.2469 109.404 51.9995C109.132 51.7522 108.736 51.6285 108.216 51.6285C107.573 51.6285 107.029 51.8016 106.584 52.1727C106.163 52.5437 105.867 53.0631 105.718 53.7557L105.1 56.8229H104.556L105.693 51.1833H106.213L105.99 52.2469C106.262 51.8758 106.584 51.6038 106.98 51.4059C107.375 51.2327 107.821 51.1338 108.315 51.1338C109.008 51.1585 109.503 51.3069 109.849 51.6285Z" fill="white"/>
<path d="M118.111 51.208L117.096 56.254C116.899 57.2186 116.552 57.9112 116.033 58.3565C115.513 58.8017 114.796 58.9996 113.881 58.9996C113.361 58.9996 112.891 58.9254 112.471 58.777C112.05 58.6286 111.704 58.4059 111.432 58.1338L111.778 57.7381C112.001 57.9854 112.298 58.1833 112.669 58.3317C113.04 58.4801 113.46 58.5543 113.906 58.5543C114.648 58.5543 115.241 58.3812 115.662 58.0349C116.082 57.6886 116.379 57.1444 116.527 56.4024L116.701 55.5614C116.429 55.9324 116.058 56.2045 115.662 56.4271C115.241 56.625 114.771 56.7239 114.277 56.7239C113.51 56.7239 112.916 56.5261 112.471 56.1303C112.026 55.7345 111.803 55.1904 111.803 54.4978C111.803 53.8794 111.951 53.3352 112.224 52.8405C112.496 52.3458 112.891 51.9501 113.361 51.678C113.856 51.4059 114.4 51.2575 115.019 51.2575C115.612 51.2575 116.107 51.3812 116.503 51.6285C116.899 51.8759 117.171 52.2469 117.294 52.7416L117.566 51.3069H118.111V51.208ZM115.761 55.8087C116.156 55.5861 116.478 55.2398 116.701 54.8441C116.923 54.4236 117.047 53.9536 117.047 53.4342C117.047 52.8653 116.874 52.4448 116.503 52.1232C116.156 51.8017 115.662 51.6532 115.019 51.6532C114.499 51.6532 114.054 51.7769 113.633 51.9995C113.238 52.2221 112.916 52.5684 112.694 52.9642C112.471 53.3847 112.347 53.8547 112.347 54.3741C112.347 54.943 112.52 55.3635 112.891 55.6851C113.238 56.0066 113.732 56.155 114.376 56.155C114.895 56.155 115.34 56.0314 115.761 55.8087Z" fill="white"/>
<path d="M131.294 51.208L128.104 56.8476H127.584L126.545 51.9253L123.725 56.8476H123.206L122.093 51.208H122.588L123.577 56.254L126.446 51.208H126.916L127.93 56.2292L130.775 51.208H131.294Z" fill="white"/>
<path d="M136.612 51.6287C136.959 51.9503 137.132 52.3955 137.132 52.9644C137.132 53.1623 137.107 53.3602 137.058 53.5828L136.414 56.8478H135.87L136.513 53.5828C136.538 53.4096 136.563 53.2365 136.563 53.0386C136.563 52.5934 136.439 52.2471 136.167 51.9997C135.895 51.7524 135.499 51.6287 134.98 51.6287C134.337 51.6287 133.793 51.8019 133.347 52.1729C132.902 52.5439 132.63 53.0634 132.482 53.7559L131.863 56.8231H131.344L132.952 48.7842H133.496L132.803 52.2224C133.347 51.505 134.114 51.134 135.128 51.134C135.771 51.1588 136.266 51.3072 136.612 51.6287Z" fill="white"/>
<path d="M144.8 51.208L143.662 56.8476H143.142L143.365 55.7345C143.093 56.1056 142.747 56.3776 142.351 56.5755C141.955 56.7734 141.485 56.8723 140.991 56.8723C140.248 56.8723 139.655 56.6497 139.21 56.2292C138.764 55.8087 138.542 55.2398 138.542 54.5225C138.542 53.8794 138.69 53.3105 138.962 52.791C139.234 52.2716 139.605 51.8758 140.1 51.579C140.595 51.2822 141.139 51.1338 141.733 51.1338C142.326 51.1338 142.796 51.2575 143.192 51.5048C143.563 51.7522 143.835 52.1232 143.959 52.5684L144.231 51.1585H144.8V51.208ZM142.45 56.0313C142.846 55.784 143.167 55.4377 143.39 55.0172C143.612 54.572 143.736 54.0773 143.736 53.5331C143.736 52.9395 143.563 52.4695 143.217 52.1479C142.87 51.8264 142.376 51.6532 141.733 51.6532C141.238 51.6532 140.768 51.7769 140.372 52.0243C139.976 52.2716 139.655 52.6179 139.432 53.0631C139.21 53.5084 139.086 53.9783 139.086 54.5225C139.086 55.1161 139.259 55.5861 139.605 55.9077C139.952 56.2292 140.446 56.4024 141.089 56.4024C141.609 56.4024 142.054 56.2787 142.45 56.0313Z" fill="white"/>
<path d="M146.927 55.2149C146.902 55.3633 146.877 55.487 146.877 55.6106C146.877 56.1548 147.174 56.4269 147.743 56.4269C148.089 56.4269 148.386 56.328 148.658 56.1053L148.832 56.5011C148.51 56.7485 148.114 56.8721 147.62 56.8721C147.224 56.8721 146.902 56.7732 146.68 56.5506C146.457 56.328 146.333 56.0559 146.333 55.6601C146.333 55.5117 146.358 55.3633 146.383 55.2396L147.1 51.653H146.061L146.16 51.183H147.199L147.446 49.9463H147.991L147.743 51.183H149.549L149.45 51.653H147.644L146.927 55.2149Z" fill="white"/>
<path d="M151.701 50.516C151.75 50.5902 151.775 50.6644 151.775 50.7633C151.775 50.887 151.726 51.0107 151.627 51.1096C151.528 51.2086 151.429 51.258 151.28 51.258C151.157 51.258 151.058 51.2086 150.959 51.1344C150.885 51.0601 150.835 50.9365 150.835 50.8128C150.835 50.7386 150.86 50.6891 150.885 50.6149C150.909 50.5407 150.934 50.4912 150.959 50.4418C150.983 50.3923 151.008 50.3676 151.008 50.3428L151.775 48.834H152.146L151.503 50.3676C151.577 50.3923 151.651 50.4418 151.701 50.516Z" fill="white"/>
<path d="M152.616 56.6995C152.22 56.5759 151.899 56.4027 151.676 56.1801L151.973 55.7596C152.171 55.9575 152.468 56.1306 152.814 56.2296C153.16 56.3532 153.531 56.4027 153.927 56.4027C154.521 56.4027 154.966 56.3038 155.287 56.1059C155.609 55.908 155.757 55.6112 155.757 55.2402C155.757 55.0423 155.683 54.8691 155.56 54.7455C155.436 54.6218 155.263 54.5228 155.09 54.4734C154.892 54.4239 154.644 54.3497 154.323 54.2755C153.927 54.2013 153.605 54.1023 153.383 54.0281C153.135 53.9292 152.938 53.8055 152.764 53.6324C152.591 53.4592 152.517 53.1871 152.517 52.8903C152.517 52.3709 152.74 51.9504 153.16 51.6536C153.581 51.332 154.15 51.1836 154.867 51.1836C155.238 51.1836 155.584 51.2331 155.906 51.332C156.252 51.4309 156.524 51.5546 156.722 51.7278L156.475 52.1483C156.277 51.9751 156.005 51.8514 155.733 51.7772C155.436 51.703 155.139 51.6536 154.817 51.6536C154.273 51.6536 153.828 51.7525 153.506 51.9751C153.185 52.1977 153.037 52.4698 153.037 52.8408C153.037 53.0635 153.111 53.2366 153.234 53.3603C153.358 53.484 153.531 53.5829 153.729 53.6571C153.927 53.7313 154.199 53.7808 154.521 53.855C154.916 53.9292 155.213 54.0034 155.461 54.1023C155.683 54.1765 155.906 54.325 156.054 54.4981C156.227 54.6712 156.302 54.9186 156.302 55.2402C156.302 55.7596 156.079 56.1801 155.634 56.4769C155.188 56.7737 154.595 56.9221 153.878 56.9221C153.432 56.8974 153.012 56.8232 152.616 56.6995Z" fill="white"/>
<path d="M165.528 51.6285C165.874 51.95 166.047 52.3953 166.047 52.9642C166.047 53.1621 166.022 53.3599 165.973 53.5826L165.33 56.8476H164.786L165.429 53.5826C165.454 53.4094 165.478 53.2363 165.478 53.0384C165.478 52.5932 165.355 52.2469 165.083 51.9995C164.81 51.7522 164.415 51.6285 163.895 51.6285C163.252 51.6285 162.708 51.8016 162.263 52.1727C161.842 52.5437 161.545 53.0631 161.397 53.7557L160.779 56.8229H160.284L161.422 51.1833H161.941L161.719 52.2469C161.991 51.8758 162.312 51.6038 162.708 51.4059C163.104 51.2327 163.549 51.1338 164.044 51.1338C164.687 51.1585 165.181 51.3069 165.528 51.6285Z" fill="white"/>
<path d="M168.026 54.1515C168.001 54.2999 168.001 54.4236 168.001 54.4978C168.001 55.1161 168.174 55.5861 168.521 55.9077C168.867 56.2292 169.386 56.4024 170.079 56.4024C170.475 56.4024 170.846 56.3282 171.167 56.2045C171.514 56.0808 171.786 55.8829 172.008 55.6356L172.256 56.0066C172.008 56.2787 171.687 56.5013 171.291 56.6497C170.895 56.7981 170.475 56.8723 170.03 56.8723C169.238 56.8723 168.595 56.6745 168.15 56.254C167.68 55.8335 167.457 55.2646 167.457 54.5225C167.457 53.8794 167.581 53.3105 167.853 52.791C168.125 52.2716 168.496 51.8758 168.966 51.579C169.436 51.2822 169.955 51.1338 170.549 51.1338C171.291 51.1338 171.86 51.3317 172.305 51.7522C172.75 52.1727 172.948 52.7416 172.948 53.4836C172.948 53.6568 172.924 53.8547 172.874 54.102H168.026V54.1515ZM168.966 52.1974C168.521 52.5684 168.224 53.0879 168.1 53.731H172.454C172.454 53.6568 172.454 53.5826 172.454 53.4589C172.454 52.89 172.28 52.4448 171.934 52.1232C171.588 51.8016 171.118 51.6532 170.549 51.6532C169.931 51.6285 169.411 51.8016 168.966 52.1974Z" fill="white"/>
<path d="M176.411 53.9783L178.093 56.8476H177.5L176.04 54.3246L173.616 56.8476H172.973L175.818 53.9289L174.235 51.208H174.803L176.164 53.5578L178.44 51.208H179.083L176.411 53.9783Z" fill="white"/>
<path d="M180.468 55.2149C180.443 55.3633 180.418 55.487 180.418 55.6106C180.418 56.1548 180.715 56.4269 181.284 56.4269C181.63 56.4269 181.927 56.328 182.199 56.1053L182.372 56.5011C182.051 56.7485 181.655 56.8721 181.16 56.8721C180.765 56.8721 180.443 56.7732 180.22 56.5506C179.998 56.328 179.874 56.0559 179.874 55.6601C179.874 55.5117 179.899 55.3633 179.924 55.2396L180.641 51.653H179.602L179.701 51.183H180.74L180.987 49.9463H181.531L181.284 51.183H183.09L182.991 51.653H181.185L180.468 55.2149Z" fill="white"/>
<path d="M183.609 56.7739C183.51 56.6997 183.485 56.5761 183.485 56.4524C183.485 56.304 183.535 56.205 183.634 56.1061C183.733 56.0072 183.832 55.9824 183.98 55.9824C184.104 55.9824 184.203 56.0319 184.302 56.1061C184.401 56.205 184.425 56.304 184.425 56.4277C184.425 56.5513 184.376 56.675 184.277 56.7739C184.178 56.8729 184.079 56.9224 183.931 56.9224C183.782 56.8976 183.683 56.8482 183.609 56.7739Z" fill="white"/>
</svg>
