<svg width="179" height="52" viewBox="0 0 179 52" fill="none" xmlns="http://www.w3.org/2000/svg">
<path d="M4.52942 9.07925C7.04071 9.07925 9.05831 7.04017 9.05831 4.55036C9.05831 2.06054 7.01924 0 4.52942 0C2.01814 0 0.000530243 2.03907 0.000530243 4.52889C0.000530243 7.01871 2.01814 9.07925 4.52942 9.07925Z" fill="#FF6C40"/>
<path d="M4.52906 21.8932C7.04034 21.8932 9.05795 19.8542 9.05795 17.3643C9.05795 14.8745 7.01888 12.8354 4.52906 12.8354C2.01778 12.8354 0.000167912 14.8745 0.000167912 17.3643C-0.021296 19.8542 2.01778 21.8932 4.52906 21.8932Z" fill="#FF6C40"/>
<path d="M4.52906 34.514C7.01888 34.514 9.05795 32.4749 9.05795 29.9851C9.05795 27.4953 7.01888 25.4562 4.52906 25.4562C2.03924 25.4562 0.000164032 27.4953 0.000164032 29.9851C0.000164032 32.4964 2.01778 34.514 4.52906 34.514Z" fill="black"/>
<path d="M18.6309 9.07925C21.1422 9.07925 23.1598 7.04017 23.1598 4.55036C23.1598 2.06054 21.1422 0 18.6309 0C16.1196 0 14.102 2.03907 14.102 4.52889C14.102 7.04017 16.1411 9.07925 18.6309 9.07925Z" fill="#FF6C40"/>
<path d="M18.6309 21.8932C21.1422 21.8932 23.1598 19.8542 23.1598 17.3643C23.1598 14.8745 21.1207 12.8354 18.6309 12.8354C16.1196 12.8354 14.102 14.8745 14.102 17.3643C14.102 19.8542 16.1411 21.8932 18.6309 21.8932Z" fill="#FF6C40"/>
<path d="M18.6309 34.5355C21.1422 34.5355 23.1598 32.4964 23.1598 30.0066C23.1598 27.4953 21.1207 25.4777 18.6309 25.4777C16.1196 25.4777 14.102 27.5168 14.102 30.0066C14.102 32.4964 16.1411 34.5355 18.6309 34.5355Z" fill="#FF6C40"/>
<path d="M32.1102 9.07925C34.6215 9.07925 36.6391 7.04017 36.6391 4.55036C36.6391 2.06054 34.6 0 32.1102 0C29.5989 0 27.5813 2.03907 27.5813 4.52889C27.5813 7.01871 29.5989 9.07925 32.1102 9.07925Z" fill="#FF6C40"/>
<path d="M32.1102 21.8932C34.6215 21.8932 36.6391 19.8542 36.6391 17.3643C36.6391 14.8745 34.6001 12.8354 32.1102 12.8354C29.599 12.8354 27.5813 14.8745 27.5813 17.3643C27.5599 19.8542 29.599 21.8932 32.1102 21.8932Z" fill="#FF6C40"/>
<path d="M32.1102 34.5355C34.6215 34.5355 36.6391 32.4964 36.6391 30.0066C36.6391 27.4953 34.6001 25.4777 32.1102 25.4777C29.599 25.4777 27.5813 27.5168 27.5813 30.0066C27.5599 32.4964 29.599 34.5355 32.1102 34.5355Z" fill="#FF6C40"/>
<path d="M52.2219 32.9257C51.4922 32.5608 50.9341 32.0027 50.5263 31.3159C50.1185 30.629 49.9253 29.8563 49.9253 29.0192C49.9253 28.1822 50.1185 27.4095 50.5263 26.7226C50.9341 26.0358 51.4922 25.5206 52.2649 25.1128C52.9946 24.705 53.7888 24.5547 54.7118 24.5547C55.3986 24.5547 55.9996 24.6835 56.6006 24.8767C57.1587 25.0699 57.6523 25.3918 58.0601 25.8426L57.4591 26.4436C56.7294 25.7567 55.8493 25.3918 54.7547 25.3918C54.0249 25.3918 53.381 25.5636 52.78 25.8855C52.179 26.2075 51.7283 26.6582 51.4063 27.1734C51.0844 27.7314 50.9126 28.3324 50.9126 29.0192C50.9126 29.7061 51.0844 30.3071 51.4063 30.8651C51.7283 31.4232 52.2219 31.831 52.78 32.153C53.381 32.4749 54.0249 32.6467 54.7547 32.6467C55.8493 32.6467 56.7723 32.2818 57.4591 31.5949L58.0601 32.1959C57.6523 32.6037 57.1801 32.9257 56.6006 33.1618C56.0425 33.355 55.3986 33.4837 54.7118 33.4837C53.7459 33.4837 52.9517 33.2906 52.2219 32.9257Z" fill="black"/>
<path d="M61.4085 32.9257C60.6787 32.5179 60.1207 32.0028 59.6699 31.3159C59.2621 30.6291 59.069 29.8564 59.069 29.0622C59.069 28.2251 59.2621 27.4524 59.6699 26.8085C60.0778 26.1216 60.6358 25.6065 61.4085 25.1987C62.1383 24.7909 62.9754 24.6406 63.8554 24.6406C64.7354 24.6406 65.594 24.8338 66.3023 25.1987C67.0321 25.6065 67.5901 26.1216 68.0409 26.8085C68.4487 27.4953 68.6848 28.268 68.6848 29.1051C68.6848 29.9422 68.4916 30.7149 68.0409 31.4018C67.6331 32.0886 67.0321 32.6037 66.3023 33.0116C65.5725 33.4194 64.7784 33.5696 63.8554 33.5696C62.9325 33.4838 62.1383 33.2906 61.4085 32.9257ZM65.7872 32.1959C66.3452 31.874 66.8389 31.4662 67.1609 30.9081C67.4828 30.35 67.6545 29.749 67.6545 29.0622C67.6545 28.3753 67.4828 27.7744 67.1609 27.2163C66.8389 26.6582 66.3452 26.2075 65.7872 25.9285C65.2291 25.6065 64.5423 25.4348 63.8125 25.4348C63.0827 25.4348 62.4388 25.6065 61.8378 25.9285C61.2368 26.2504 60.7861 26.7012 60.4641 27.2163C60.1422 27.7314 59.9704 28.3753 59.9704 29.0622C59.9704 29.749 60.1422 30.35 60.4641 30.9081C60.7861 31.4662 61.2797 31.874 61.8378 32.1959C62.4388 32.5179 63.0827 32.6896 63.8125 32.6896C64.5423 32.6896 65.2291 32.5179 65.7872 32.1959Z" fill="black"/>
<path d="M80.2538 24.6621V33.3979H79.3309V26.4007L75.7893 32.3247H75.3386L71.7541 26.4651V33.4408H70.8312V24.6621H71.6468L75.5962 31.1442L79.5026 24.6621H80.2538Z" fill="black"/>
<path d="M92.703 24.6621V33.3979H91.78V26.4007L88.1955 32.2818H87.7448L84.1603 26.4436V33.3979H83.2374V24.6621H84.053L88.0023 31.1442L91.9088 24.6621H92.703Z" fill="black"/>
<path d="M96.6094 32.5179C95.9655 31.874 95.6006 30.9081 95.6006 29.7061V24.6621H96.5665V29.6203C96.5665 30.6291 96.8026 31.4018 97.2962 31.874C97.7899 32.3676 98.4553 32.6467 99.3568 32.6467C100.28 32.6467 100.967 32.4106 101.46 31.874C101.954 31.3803 102.19 30.6291 102.19 29.6203V24.6621H103.113V29.6632C103.113 30.9081 102.791 31.831 102.147 32.475C101.503 33.1189 100.58 33.4408 99.3997 33.4408C98.2192 33.4408 97.2533 33.1618 96.6094 32.5179Z" fill="black"/>
<path d="M113.652 24.6621V33.3979H112.836L106.955 26.3148V33.3979H105.989V24.6621H106.805L112.686 31.7452V24.6621H113.652Z" fill="black"/>
<path d="M117.558 24.6621H116.592V33.3979H117.558V24.6621Z" fill="black"/>
<path d="M122.066 32.9257C121.336 32.5608 120.778 32.0027 120.37 31.3159C119.962 30.629 119.769 29.8563 119.769 29.0192C119.769 28.1822 119.962 27.4095 120.37 26.7226C120.778 26.0358 121.336 25.5206 122.109 25.1128C122.838 24.705 123.632 24.5547 124.555 24.5547C125.242 24.5547 125.843 24.6835 126.444 24.8767C127.002 25.0699 127.496 25.3918 127.904 25.8426L127.303 26.4436C126.573 25.7567 125.693 25.3918 124.598 25.3918C123.869 25.3918 123.225 25.5636 122.624 25.8855C122.023 26.2075 121.572 26.6582 121.25 27.1734C120.928 27.7314 120.756 28.3324 120.756 29.0192C120.756 29.7061 120.907 30.3071 121.25 30.8651C121.572 31.4232 122.066 31.831 122.624 32.153C123.225 32.4749 123.869 32.6467 124.598 32.6467C125.693 32.6467 126.616 32.2818 127.303 31.5949L127.904 32.1959C127.496 32.6037 127.024 32.9257 126.444 33.1618C125.886 33.355 125.242 33.4837 124.555 33.4837C123.611 33.4837 122.795 33.2906 122.066 32.9257Z" fill="black"/>
<path d="M135.395 31.0583H130.329L129.235 33.3979H128.226L132.368 24.6621H133.334L137.477 33.3979H136.468L135.395 31.0583ZM135.051 30.35L132.883 25.628L130.716 30.35H135.051Z" fill="black"/>
<path d="M140.31 25.4777H137.09V24.6621H144.474V25.4777H141.254V33.3979H140.267V25.4777H140.31Z" fill="black"/>
<path d="M147.007 24.6621H146.041V33.3979H147.007V24.6621Z" fill="black"/>
<path d="M151.514 32.9257C150.784 32.5179 150.226 32.0028 149.776 31.3159C149.368 30.6291 149.175 29.8564 149.175 29.0622C149.175 28.2251 149.368 27.4524 149.776 26.8085C150.183 26.1216 150.741 25.6065 151.514 25.1987C152.244 24.7909 153.081 24.6406 153.961 24.6406C154.841 24.6406 155.7 24.8338 156.408 25.1987C157.138 25.6065 157.696 26.1216 158.147 26.8085C158.554 27.4953 158.79 28.268 158.79 29.1051C158.79 29.9422 158.597 30.7149 158.147 31.4018C157.739 32.0886 157.138 32.6037 156.408 33.0116C155.678 33.4194 154.884 33.5696 153.961 33.5696C153.038 33.4838 152.244 33.2906 151.514 32.9257ZM155.914 32.1959C156.472 31.874 156.966 31.4662 157.288 30.9081C157.61 30.35 157.782 29.749 157.782 29.0622C157.782 28.3753 157.61 27.7744 157.288 27.2163C156.966 26.6582 156.472 26.2075 155.914 25.9285C155.356 25.6065 154.669 25.4348 153.94 25.4348C153.21 25.4348 152.566 25.6065 151.965 25.9285C151.364 26.2504 150.913 26.7012 150.591 27.2163C150.269 27.7744 150.098 28.3753 150.098 29.0622C150.098 29.749 150.269 30.35 150.591 30.9081C150.913 31.4662 151.407 31.874 151.965 32.1959C152.566 32.5179 153.21 32.6896 153.94 32.6896C154.648 32.6681 155.335 32.5179 155.914 32.1959Z" fill="black"/>
<path d="M168.514 24.6621V33.3979H167.719L161.838 26.3148V33.3979H160.872V24.6621H161.667L167.548 31.7452V24.6621H168.514Z" fill="black"/>
<path d="M172.055 33.1618C171.454 32.9686 170.961 32.6681 170.596 32.3462L170.961 31.6164C171.282 31.9384 171.733 32.1745 172.291 32.3891C172.849 32.5823 173.429 32.6681 173.987 32.6681C174.803 32.6681 175.404 32.4964 175.833 32.2174C176.241 31.9384 176.434 31.5735 176.434 31.0798C176.434 30.7149 176.305 30.4359 176.112 30.2427C175.876 30.0495 175.618 29.8778 175.296 29.749C174.974 29.6203 174.524 29.5129 173.965 29.3841C173.279 29.2339 172.721 29.0622 172.313 28.8905C171.905 28.7402 171.54 28.4827 171.261 28.1607C170.982 27.8387 170.81 27.388 170.81 26.8729C170.81 26.4221 170.939 26.0358 171.175 25.6709C171.411 25.306 171.776 25.027 172.313 24.7909C172.806 24.5977 173.45 24.4689 174.202 24.4689C174.717 24.4689 175.253 24.5548 175.726 24.6621C176.219 24.7909 176.648 24.984 177.013 25.2201L176.691 25.9499C176.327 25.7138 175.876 25.4992 175.489 25.4348C175.039 25.306 174.652 25.2631 174.202 25.2631C173.386 25.2631 172.785 25.4348 172.399 25.7138C171.991 25.9928 171.798 26.4007 171.798 26.8514C171.798 27.2163 171.926 27.4953 172.12 27.6885C172.313 27.8817 172.613 28.0534 172.957 28.1822C173.279 28.3109 173.729 28.4183 174.287 28.5471C174.974 28.6973 175.489 28.869 175.897 29.0407C176.305 29.191 176.67 29.4485 176.949 29.7276C177.228 30.0495 177.4 30.4573 177.4 30.9725C177.4 31.4232 177.271 31.8096 177.035 32.1745C176.799 32.5393 176.391 32.8184 175.897 33.0116C175.382 33.2047 174.76 33.3335 174.008 33.3335C173.343 33.4838 172.656 33.3979 172.055 33.1618Z" fill="black"/>
<path d="M61.0866 12.1271H53.4669L51.9858 15.5184H49.0882L55.9352 0.987335H58.7041L65.5511 15.5184H62.6105L61.0866 12.1271ZM60.1636 10.0022L57.3089 3.6274L54.4542 10.0022H60.1636Z" fill="black"/>
<path d="M82.7651 0.944427L76.1542 15.4755H73.3639L66.7316 0.944427H69.7794L74.8664 12.1701L79.9748 0.944427H82.7651Z" fill="black"/>
<path d="M89.2902 14.7028C88.0453 14.0589 87.0794 13.1789 86.3496 11.9984C85.6198 10.8608 85.2979 9.57293 85.2979 8.17777C85.2979 6.76115 85.6628 5.47332 86.3496 4.35719C87.0794 3.2196 88.0453 2.29665 89.2902 1.65274C90.5351 1.00882 91.9517 0.686859 93.4757 0.686859C94.9996 0.686859 96.4162 1.00882 97.6611 1.65274C98.906 2.29665 99.8719 3.17668 100.602 4.31427C101.331 5.45185 101.653 6.73969 101.653 8.13485C101.653 9.55147 101.289 10.8393 100.602 11.9554C99.8719 13.093 98.906 13.973 97.6611 14.617C96.4162 15.2609 94.9996 15.5828 93.4757 15.5828C91.9303 15.6043 90.5351 15.3467 89.2902 14.7028ZM96.2016 12.6637C97.0172 12.213 97.6611 11.612 98.0904 10.8608C98.5411 10.0881 98.7773 9.20804 98.7773 8.24217C98.7773 7.27629 98.5411 6.39627 98.0904 5.62357C97.5967 4.85086 96.9957 4.20695 96.2016 3.82059C95.3859 3.36985 94.463 3.17668 93.4542 3.17668C92.4454 3.17668 91.5224 3.36985 90.7068 3.82059C89.8912 4.27134 89.2473 4.87233 88.818 5.62357C88.3672 6.39627 88.1311 7.27629 88.1311 8.24217C88.1311 9.20804 88.3672 10.0881 88.818 10.8608C89.2687 11.6335 89.9126 12.2774 90.7068 12.6637C91.5224 13.1145 92.4454 13.3077 93.4542 13.3077C94.463 13.3077 95.4074 13.093 96.2016 12.6637Z" fill="black"/>
<path d="M109.659 14.7028C108.415 14.0589 107.449 13.1789 106.762 12.0413C106.075 10.9037 105.71 9.61588 105.71 8.22073C105.71 6.8041 106.075 5.51627 106.762 4.40014C107.492 3.26255 108.457 2.38253 109.659 1.73861C110.904 1.09469 112.278 0.772736 113.802 0.772736C115.047 0.772736 116.185 0.965912 117.236 1.37373C118.245 1.78154 119.125 2.38253 119.855 3.1767L118.052 4.82942C116.957 3.69183 115.605 3.13377 113.974 3.13377C112.922 3.13377 111.999 3.32695 111.205 3.77769C110.389 4.22843 109.745 4.82942 109.273 5.58066C108.822 6.35336 108.586 7.23338 108.586 8.19926C108.586 9.16514 108.822 10.0452 109.273 10.8608C109.724 11.6335 110.368 12.2345 111.205 12.6638C112.02 13.1145 112.986 13.3077 113.974 13.3077C115.584 13.3077 116.914 12.7496 118.052 11.5691L119.855 13.2218C119.125 14.0375 118.288 14.6384 117.236 15.0248C116.185 15.4111 115.068 15.6258 113.802 15.6258C112.321 15.6687 110.904 15.3468 109.659 14.7028Z" fill="black"/>
<path d="M134.279 12.1271H126.659L125.178 15.5184H122.28L129.127 0.987335H131.896L138.743 15.5184H135.803L134.279 12.1271ZM133.356 10.0022L130.501 3.6274L127.646 10.0022H133.356Z" fill="black"/>
<path d="M142.864 0.944427H149.518C151.128 0.944427 152.587 1.26639 153.832 1.82445C155.077 2.42544 156.043 3.284 156.773 4.35719C157.46 5.45186 157.825 6.73969 157.825 8.17778C157.825 9.63732 157.46 10.8822 156.773 11.9984C156.086 13.093 155.12 13.9301 153.832 14.5311C152.587 15.1321 151.128 15.4111 149.518 15.4111H142.864V0.944427ZM149.346 13.1789C150.484 13.1789 151.45 12.9857 152.287 12.5779C153.124 12.1701 153.768 11.5691 154.219 10.8393C154.669 10.0666 154.905 9.18658 154.905 8.22071C154.905 7.25483 154.669 6.33188 154.219 5.6021C153.768 4.8294 153.124 4.27134 152.287 3.86352C151.45 3.45571 150.484 3.26253 149.346 3.26253H145.633V13.2433H149.346V13.1789Z" fill="black"/>
<path d="M165.852 14.7028C164.607 14.0589 163.641 13.1789 162.912 11.9984C162.182 10.8608 161.86 9.57293 161.86 8.17777C161.86 6.76115 162.225 5.47332 162.912 4.35719C163.641 3.2196 164.607 2.29665 165.852 1.65274C167.097 1.00882 168.514 0.686859 170.038 0.686859C171.561 0.686859 172.978 1.00882 174.223 1.65274C175.468 2.29665 176.434 3.17668 177.164 4.31427C177.893 5.45185 178.215 6.73969 178.215 8.13485C178.215 9.55147 177.85 10.8393 177.164 11.9554C176.434 13.093 175.468 13.973 174.223 14.617C172.978 15.2609 171.561 15.5828 170.038 15.5828C168.471 15.6687 167.097 15.3467 165.852 14.7028ZM172.742 12.6637C173.558 12.213 174.202 11.612 174.631 10.8608C175.082 10.0881 175.318 9.20805 175.318 8.24217C175.318 7.27629 175.082 6.39627 174.631 5.62357C174.137 4.85086 173.536 4.20695 172.742 3.82059C171.926 3.36985 171.003 3.17668 169.995 3.17668C168.986 3.17668 168.063 3.36985 167.247 3.82059C166.432 4.27134 165.788 4.87233 165.358 5.62357C164.908 6.39627 164.672 7.27629 164.672 8.24217C164.672 9.20805 164.908 10.0881 165.358 10.8608C165.809 11.6335 166.453 12.2774 167.247 12.6637C168.063 13.1145 168.986 13.3077 169.995 13.3077C171.003 13.3077 171.948 13.093 172.742 12.6637Z" fill="black"/>
<path d="M65.6369 49.0451C65.2076 48.8734 64.8857 48.6802 64.671 48.4226L64.9286 48.0578C65.1218 48.2939 65.4223 48.487 65.8086 48.6373C66.195 48.7875 66.6028 48.8734 67.0321 48.8734C67.6545 48.8734 68.1697 48.7446 68.556 48.487C68.9424 48.2295 69.1141 47.8646 69.1141 47.4138C69.1141 47.1777 69.0497 46.9846 68.8994 46.8343C68.7492 46.6841 68.5775 46.5553 68.3843 46.4694C68.1697 46.3836 67.8906 46.2977 67.5258 46.1904C67.1179 46.0616 66.7745 45.9543 66.5384 45.847C66.2808 45.7396 66.0662 45.5894 65.8945 45.3748C65.7228 45.1601 65.6369 44.9026 65.6369 44.5591C65.6369 44.1513 65.7442 43.8079 65.9589 43.5074C66.1735 43.2069 66.474 42.9923 66.8604 42.842C67.2467 42.6918 67.676 42.6059 68.1697 42.6059C68.556 42.6059 68.9209 42.6488 69.2643 42.7562C69.6078 42.8635 69.9082 42.9923 70.1443 43.1854L69.9297 43.5718C69.6936 43.4001 69.436 43.2713 69.1141 43.164C68.8136 43.0781 68.4916 43.0137 68.1482 43.0137C67.5258 43.0137 67.0321 43.1425 66.6672 43.4001C66.2808 43.6576 66.1091 44.0225 66.1091 44.4733C66.1091 44.7094 66.1735 44.924 66.3238 45.0743C66.474 45.2245 66.6457 45.3533 66.8604 45.4392C67.075 45.525 67.354 45.6323 67.7189 45.7396C68.1267 45.8684 68.4702 45.9757 68.7063 46.0831C68.9424 46.1904 69.157 46.3406 69.3287 46.5338C69.5004 46.727 69.5863 46.9846 69.5863 47.3065C69.5863 47.929 69.3502 48.4012 68.8565 48.7231C68.3843 49.0666 67.7404 49.2383 66.9892 49.2383C66.5384 49.2812 66.0877 49.1953 65.6369 49.0451Z" fill="black"/>
<path d="M71.1317 46.8987C71.1102 47.0275 71.1102 47.1348 71.1102 47.1992C71.1102 47.7358 71.2605 48.1436 71.561 48.4226C71.8615 48.7017 72.3122 48.8519 72.9132 48.8519C73.2566 48.8519 73.5786 48.7875 73.8576 48.6802C74.1581 48.5729 74.3942 48.4012 74.5874 48.1865L74.802 48.5085C74.5874 48.7446 74.3084 48.9378 73.9649 49.0666C73.6215 49.1953 73.2566 49.2597 72.8703 49.2597C72.1834 49.2597 71.6254 49.088 71.239 48.7231C70.8312 48.3583 70.638 47.8646 70.638 47.2207C70.638 46.6626 70.7453 46.1689 70.9814 45.7182C71.2176 45.2674 71.5395 44.924 71.9473 44.6665C72.3551 44.4089 72.8059 44.2801 73.321 44.2801C73.9649 44.2801 74.4586 44.4518 74.845 44.8167C75.2313 45.1816 75.403 45.6753 75.403 46.3192C75.403 46.4694 75.3816 46.6411 75.3386 46.8558H71.1317V46.8987ZM71.9473 45.2031C71.561 45.525 71.3034 45.9758 71.1961 46.5338H74.9737C74.9737 46.4694 74.9737 46.405 74.9737 46.2977C74.9737 45.804 74.8235 45.4177 74.523 45.1387C74.2225 44.8596 73.8147 44.7308 73.321 44.7308C72.7844 44.7094 72.3337 44.8596 71.9473 45.2031Z" fill="black"/>
<path d="M76.7552 46.8987C76.7338 47.0275 76.7338 47.1348 76.7338 47.1992C76.7338 47.7358 76.884 48.1436 77.1845 48.4226C77.485 48.7017 77.9358 48.8519 78.5368 48.8519C78.8802 48.8519 79.2021 48.7875 79.4812 48.6802C79.7817 48.5729 80.0178 48.4012 80.2109 48.1865L80.4256 48.5085C80.2109 48.7446 79.9319 48.9378 79.5885 49.0666C79.2451 49.1953 78.8802 49.2597 78.4938 49.2597C77.807 49.2597 77.2489 49.088 76.8626 48.7231C76.4547 48.3583 76.2616 47.8646 76.2616 47.2207C76.2616 46.6626 76.3689 46.1689 76.605 45.7182C76.8411 45.2674 77.1631 44.924 77.5709 44.6665C77.9787 44.4089 78.4294 44.2801 78.9446 44.2801C79.5885 44.2801 80.0822 44.4518 80.4685 44.8167C80.8549 45.1816 81.0266 45.6753 81.0266 46.3192C81.0266 46.4694 81.0051 46.6411 80.9622 46.8558H76.7552V46.8987ZM77.5709 45.2031C77.1845 45.525 76.927 45.9758 76.8196 46.5338H80.5973C80.5973 46.4694 80.5973 46.405 80.5973 46.2977C80.5973 45.804 80.4471 45.4177 80.1466 45.1387C79.8461 44.8596 79.4382 44.7308 78.9446 44.7308C78.408 44.7094 77.9572 44.8596 77.5709 45.2031Z" fill="black"/>
<path d="M87.7233 42.2625L86.3282 49.2383H85.8774L86.0706 48.2724C85.8345 48.5944 85.534 48.8305 85.1906 49.0022C84.8472 49.1739 84.4393 49.2597 84.0101 49.2597C83.3661 49.2597 82.851 49.0666 82.4647 48.7017C82.0783 48.3368 81.8851 47.8431 81.8851 47.2207C81.8851 46.6626 82.0139 46.1689 82.25 45.7182C82.4861 45.2674 82.8081 44.924 83.2374 44.6665C83.6666 44.4089 84.1389 44.2801 84.654 44.2801C85.1691 44.2801 85.5769 44.3874 85.9204 44.6021C86.2423 44.8167 86.4784 45.1387 86.5857 45.5465L87.2511 42.241H87.7233V42.2625ZM85.2764 48.53C85.6199 48.3153 85.8989 48.0148 86.0921 47.6499C86.2852 47.2636 86.3926 46.8343 86.3926 46.3621C86.3926 45.847 86.2423 45.4392 85.9418 45.1601C85.6413 44.8811 85.212 44.7308 84.654 44.7308C84.2247 44.7308 83.8169 44.8382 83.4735 45.0528C83.13 45.2674 82.851 45.5679 82.6578 45.9543C82.4647 46.3406 82.3573 46.7485 82.3573 47.2207C82.3573 47.7358 82.5076 48.1436 82.8081 48.4226C83.1086 48.7017 83.5379 48.8519 84.0959 48.8519C84.5252 48.8519 84.933 48.7446 85.2764 48.53Z" fill="black"/>
<path d="M89.2687 44.3445H89.7409L88.7536 49.2383H88.2814L89.2687 44.3445ZM89.5478 43.0352C89.4834 42.9708 89.4404 42.8849 89.4404 42.7991C89.4404 42.6918 89.4834 42.5845 89.5478 42.4986C89.6336 42.4127 89.7195 42.3698 89.8482 42.3698C89.9556 42.3698 90.0414 42.4127 90.1058 42.4771C90.1702 42.5415 90.2131 42.6274 90.2131 42.7132C90.2131 42.842 90.1702 42.9279 90.0844 43.0137C89.9985 43.0996 89.9126 43.1211 89.7839 43.1211C89.698 43.1425 89.6121 43.1211 89.5478 43.0352Z" fill="black"/>
<path d="M95.3215 44.7094C95.622 44.9884 95.7723 45.3748 95.7723 45.8684C95.7723 46.0401 95.7508 46.2119 95.7079 46.405L95.1498 49.2383H94.6776L95.2357 46.405C95.2572 46.2548 95.2786 46.1045 95.2786 45.9328C95.2786 45.5465 95.1713 45.246 94.9352 45.0313C94.6991 44.8167 94.3557 44.7094 93.9049 44.7094C93.3469 44.7094 92.8747 44.8596 92.4883 45.1816C92.1234 45.5035 91.8659 45.9543 91.7371 46.5553L91.2005 49.2168H90.7283L91.7156 44.323H92.1664L91.9732 45.246C92.2093 44.924 92.4883 44.6879 92.8317 44.5162C93.1752 44.366 93.5615 44.2801 93.9908 44.2801C94.5918 44.3016 95.0211 44.4304 95.3215 44.7094Z" fill="black"/>
<path d="M102.491 44.3445L101.61 48.7231C101.439 49.5602 101.138 50.1612 100.688 50.5476C100.237 50.9339 99.6144 51.1056 98.8202 51.1056C98.3694 51.1056 97.9616 51.0412 97.5967 50.9125C97.2319 50.7837 96.9314 50.5905 96.6953 50.3544L96.9958 50.011C97.1889 50.2256 97.4465 50.3973 97.7684 50.5261C98.0904 50.6549 98.4553 50.7193 98.8416 50.7193C99.4856 50.7193 100.001 50.569 100.366 50.2685C100.73 49.9681 100.988 49.4958 101.117 48.8519L101.267 48.1222C101.031 48.4441 100.709 48.6802 100.366 48.8734C100.001 49.0451 99.5929 49.131 99.1636 49.131C98.4982 49.131 97.9831 48.9592 97.5967 48.6158C97.2104 48.2724 97.0172 47.8002 97.0172 47.1992C97.0172 46.6626 97.146 46.1904 97.3821 45.7611C97.6182 45.3318 97.9616 44.9884 98.3694 44.7523C98.7987 44.5162 99.2709 44.3874 99.8075 44.3874C100.323 44.3874 100.752 44.4947 101.095 44.7094C101.439 44.924 101.675 45.246 101.782 45.6753L102.018 44.4304H102.491V44.3445ZM100.451 48.3368C100.795 48.1436 101.074 47.8431 101.267 47.4997C101.46 47.1348 101.568 46.727 101.568 46.2763C101.568 45.7826 101.417 45.4177 101.095 45.1387C100.795 44.8596 100.366 44.7308 99.8075 44.7308C99.3568 44.7308 98.9704 44.8382 98.6055 45.0313C98.2621 45.2245 97.9831 45.525 97.7899 45.8684C97.5967 46.2333 97.4894 46.6411 97.4894 47.0919C97.4894 47.5856 97.6397 47.9504 97.9616 48.2295C98.2621 48.5085 98.6914 48.6373 99.2495 48.6373C99.7002 48.6373 100.087 48.53 100.451 48.3368Z" fill="black"/>
<path d="M113.931 44.3445L111.162 49.2383H110.711L109.81 44.967L107.363 49.2383H106.912L105.946 44.3445H106.375L107.234 48.7231L109.724 44.3445H110.132L111.012 48.7017L113.48 44.3445H113.931Z" fill="black"/>
<path d="M118.546 44.7094C118.846 44.9884 118.996 45.3748 118.996 45.8684C118.996 46.0401 118.975 46.2119 118.932 46.405L118.374 49.2383H117.902L118.46 46.405C118.481 46.2548 118.503 46.1045 118.503 45.9328C118.503 45.5465 118.395 45.246 118.159 45.0313C117.923 44.8167 117.58 44.7094 117.129 44.7094C116.571 44.7094 116.099 44.8596 115.712 45.1816C115.326 45.5035 115.09 45.9543 114.961 46.5553L114.424 49.2168H113.974L115.369 42.241H115.841L115.24 45.2245C115.712 44.6021 116.378 44.2801 117.258 44.2801C117.816 44.3016 118.245 44.4303 118.546 44.7094Z" fill="black"/>
<path d="M125.65 44.3445L124.663 49.2383H124.212L124.405 48.2724C124.169 48.5944 123.869 48.8305 123.525 49.0022C123.182 49.1739 122.774 49.2597 122.345 49.2597C121.701 49.2597 121.186 49.0666 120.799 48.7017C120.413 48.3368 120.22 47.8431 120.22 47.2207C120.22 46.6626 120.349 46.1689 120.585 45.7182C120.821 45.2674 121.143 44.924 121.572 44.6665C122.001 44.4089 122.473 44.2801 122.989 44.2801C123.504 44.2801 123.912 44.3874 124.255 44.6021C124.577 44.8167 124.813 45.1387 124.92 45.525L125.156 44.3016H125.65V44.3445ZM123.611 48.53C123.954 48.3153 124.233 48.0148 124.427 47.6499C124.62 47.2636 124.727 46.8343 124.727 46.3621C124.727 45.847 124.577 45.4392 124.276 45.1601C123.976 44.8811 123.547 44.7308 122.989 44.7308C122.559 44.7308 122.151 44.8382 121.808 45.0528C121.465 45.2674 121.186 45.5679 120.992 45.9543C120.799 46.3406 120.692 46.7485 120.692 47.2207C120.692 47.7358 120.842 48.1436 121.143 48.4226C121.443 48.7017 121.872 48.8519 122.431 48.8519C122.881 48.8519 123.268 48.7446 123.611 48.53Z" fill="black"/>
<path d="M127.496 47.8216C127.475 47.9504 127.453 48.0578 127.453 48.1651C127.453 48.6373 127.711 48.8734 128.204 48.8734C128.505 48.8734 128.762 48.7875 128.998 48.5944L129.149 48.9378C128.87 49.1524 128.526 49.2597 128.097 49.2597C127.754 49.2597 127.475 49.1739 127.281 48.9807C127.088 48.7875 126.981 48.5514 126.981 48.208C126.981 48.0792 127.002 47.9504 127.024 47.8431L127.646 44.7308H126.745L126.831 44.323H127.732L127.947 43.2498H128.419L128.204 44.323H129.771L129.685 44.7308H128.118L127.496 47.8216Z" fill="black"/>
<path d="M131.639 43.7435C131.681 43.8079 131.703 43.8723 131.703 43.9581C131.703 44.0655 131.66 44.1728 131.574 44.2586C131.488 44.3445 131.402 44.3874 131.274 44.3874C131.166 44.3874 131.08 44.3445 130.995 44.2801C130.93 44.2157 130.887 44.1084 130.887 44.0011C130.887 43.9367 130.909 43.8937 130.93 43.8294C130.952 43.765 130.973 43.722 130.995 43.6791C131.016 43.6362 131.038 43.6147 131.038 43.5933L131.703 42.284H132.025L131.467 43.6147C131.531 43.6362 131.596 43.6791 131.639 43.7435Z" fill="black"/>
<path d="M132.433 49.1095C132.089 49.0022 131.81 48.8519 131.617 48.6587L131.875 48.2939C132.046 48.4656 132.304 48.6158 132.604 48.7017C132.905 48.809 133.227 48.8519 133.57 48.8519C134.085 48.8519 134.472 48.7661 134.751 48.5944C135.03 48.4226 135.159 48.1651 135.159 47.8431C135.159 47.6714 135.094 47.5212 134.987 47.4138C134.88 47.3065 134.729 47.2207 134.579 47.1777C134.407 47.1348 134.193 47.0704 133.914 47.006C133.57 46.9416 133.291 46.8558 133.098 46.7914C132.883 46.7055 132.712 46.5982 132.561 46.448C132.411 46.2977 132.347 46.0616 132.347 45.804C132.347 45.3533 132.54 44.9884 132.905 44.7308C133.27 44.4518 133.763 44.323 134.386 44.323C134.708 44.323 135.008 44.366 135.287 44.4518C135.588 44.5377 135.824 44.645 135.996 44.7952L135.781 45.1601C135.609 45.0099 135.373 44.9026 135.137 44.8382C134.88 44.7738 134.622 44.7308 134.343 44.7308C133.871 44.7308 133.484 44.8167 133.205 45.0099C132.926 45.203 132.798 45.4392 132.798 45.7611C132.798 45.9543 132.862 46.1045 132.969 46.2119C133.077 46.3192 133.227 46.405 133.399 46.4694C133.57 46.5338 133.806 46.5767 134.085 46.6411C134.429 46.7055 134.686 46.7699 134.901 46.8558C135.094 46.9202 135.287 47.0489 135.416 47.1992C135.566 47.3494 135.631 47.5641 135.631 47.8431C135.631 48.2939 135.438 48.6587 135.051 48.9163C134.665 49.1739 134.15 49.3027 133.527 49.3027C133.141 49.2812 132.776 49.2168 132.433 49.1095Z" fill="black"/>
<path d="M143.637 44.7094C143.937 44.9884 144.088 45.3748 144.088 45.8684C144.088 46.0401 144.066 46.2119 144.023 46.405L143.465 49.2383H142.993L143.551 46.405C143.572 46.2548 143.594 46.1045 143.594 45.9328C143.594 45.5465 143.487 45.246 143.251 45.0313C143.014 44.8167 142.671 44.7094 142.22 44.7094C141.662 44.7094 141.19 44.8596 140.804 45.1816C140.439 45.5035 140.181 45.9543 140.052 46.5553L139.516 49.2168H139.087L140.074 44.323H140.525L140.331 45.246C140.568 44.924 140.847 44.6879 141.19 44.5162C141.533 44.366 141.92 44.2801 142.349 44.2801C142.907 44.3016 143.336 44.4304 143.637 44.7094Z" fill="black"/>
<path d="M145.805 46.8987C145.783 47.0275 145.783 47.1348 145.783 47.1992C145.783 47.7358 145.934 48.1436 146.234 48.4226C146.535 48.7017 146.985 48.8519 147.586 48.8519C147.93 48.8519 148.252 48.7875 148.531 48.6802C148.831 48.5729 149.067 48.4012 149.26 48.1865L149.475 48.5085C149.26 48.7446 148.981 48.9378 148.638 49.0666C148.295 49.1953 147.93 49.2597 147.543 49.2597C146.856 49.2597 146.298 49.088 145.912 48.7231C145.504 48.3583 145.311 47.8646 145.311 47.2207C145.311 46.6626 145.418 46.1689 145.654 45.7182C145.891 45.2674 146.213 44.924 146.62 44.6665C147.028 44.4089 147.479 44.2801 147.994 44.2801C148.638 44.2801 149.132 44.4518 149.518 44.8167C149.904 45.1816 150.076 45.6753 150.076 46.3192C150.076 46.4694 150.055 46.6411 150.012 46.8558H145.805V46.8987ZM146.62 45.2031C146.234 45.525 145.976 45.9758 145.869 46.5338H149.647C149.647 46.4694 149.647 46.405 149.647 46.2977C149.647 45.804 149.497 45.4177 149.196 45.1387C148.896 44.8596 148.488 44.7308 147.994 44.7308C147.457 44.7094 147.007 44.8596 146.62 45.2031Z" fill="black"/>
<path d="M153.081 46.7485L154.541 49.2383H154.025L152.759 47.049L150.656 49.2383H150.098L152.566 46.7055L151.192 44.3445H151.686L152.866 46.3836L154.841 44.3445H155.399L153.081 46.7485Z" fill="black"/>
<path d="M156.601 47.8216C156.58 47.9504 156.558 48.0578 156.558 48.1651C156.558 48.6373 156.816 48.8734 157.309 48.8734C157.61 48.8734 157.867 48.7875 158.104 48.5944L158.254 48.9378C157.975 49.1524 157.631 49.2597 157.202 49.2597C156.859 49.2597 156.58 49.1739 156.386 48.9807C156.193 48.7875 156.086 48.5514 156.086 48.208C156.086 48.0792 156.107 47.9504 156.129 47.8431L156.751 44.7308H155.85L155.936 44.323H156.837L157.052 43.2498H157.524L157.309 44.323H158.876L158.79 44.7308H157.224L156.601 47.8216Z" fill="black"/>
<path d="M159.327 49.1739C159.241 49.1095 159.22 49.0022 159.22 48.8948C159.22 48.7661 159.263 48.6802 159.348 48.5943C159.434 48.5085 159.52 48.487 159.649 48.487C159.756 48.487 159.842 48.53 159.928 48.5943C160.014 48.6802 160.035 48.7661 160.035 48.8734C160.035 48.9807 159.992 49.088 159.907 49.1739C159.821 49.2597 159.735 49.3027 159.606 49.3027C159.477 49.2812 159.391 49.2383 159.327 49.1739Z" fill="black"/>
</svg>
